<?xml version="1.0" encoding="iso-8859-1"?>
<!-- Generator: Adobe Illustrator 17.0.0, SVG Export Plug-In . SVG Version: 6.00 Build 0)  -->
<!DOCTYPE svg PUBLIC "-//W3C//DTD SVG 1.1//EN" "http://www.w3.org/Graphics/SVG/1.1/DTD/svg11.dtd">
<svg version="1.1" id="Layer_1" xmlns="http://www.w3.org/2000/svg" xmlns:xlink="http://www.w3.org/1999/xlink" x="0px" y="0px"
	 width="385.417px" height="135.116px" viewBox="0 0 385.417 135.116" style="enable-background:new 0 0 385.417 135.116;"
	 xml:space="preserve">
<g>
	<path style="fill:#BFBB35;" d="M34.041,66.754c27.232,0.028,53.12,2.467,78.17,10.821c25.348,8.453,48.151,21.177,67.526,39.836
		c2.737,2.636,5.67,5.137,8.415,7.802c3.688,3.58,5.693,3.644,9.283-0.007c17.49-17.786,37.435-32.016,60.423-41.875
		c21.452-9.2,43.964-13.908,67.126-15.687c18.814-1.445,37.627-1.007,56.432,0.536c3.71,0.304,4.594,1.44,3.65,5.058
		c-1.761,6.75-3.26,13.585-4.473,20.454c-0.537,3.043-1.687,3.144-4.29,2.575c-20.103-4.393-40.392-7.254-61.032-7.34
		c-44.189-0.183-83.027,14.024-116.459,42.957c-5.009,4.335-6.996,4.319-12.111-0.103c-38.091-32.935-82.476-46.032-132.32-42.243
		c-15.107,1.149-30.02,3.437-44.792,6.661c-3.165,0.691-4.108,0.068-4.677-3.122c-1.25-7.007-3.002-13.925-4.605-20.867
		c-0.547-2.369-0.732-3.782,2.681-4.005C13.669,67.506,24.349,66.983,34.041,66.754z"/>
	<path style="fill:#F5F755;" d="M216.522,95.972c9.549-9.175,19.631-17.751,30.213-25.556
		c14.154-10.439,29.517-19.067,45.836-25.789c22.276-9.176,45.468-14.532,69.489-16.492c3.979-0.325,5.379,0.744,5.397,4.704
		c0.024,5.267,0.482,10.536,0.859,15.797c0.153,2.143,0.193,3.389-2.803,3.141c-39.048-3.233-75.416,5.653-109.657,24.315
		c-20.917,11.4-39.824,25.498-57.299,41.605c-1.036,0.955-2.175,1.797-3.96,2.178c3.18-4.86,6.28-9.774,9.558-14.567
		c6.515-9.528,13.584-18.604,20.995-27.484c8.419-10.087,17.286-19.672,26.708-28.791c20.966-20.292,44.956-36.08,71.44-48.19
		c1.839-0.841,3.35-1.761,4.274,1.053c1.817,5.537,3.757,11.034,5.648,16.546c0.759,2.213,0.647,3.288-2.3,3.972
		c-27.872,6.465-52.476,19.592-75.134,36.856c-9.803,7.469-18.715,15.943-28.104,23.859
		C223.499,86.655,219.904,91.377,216.522,95.972z"/>
	<path style="fill:#F5F755;" d="M169.108,96.39c-4.415-6.171-9.968-11.424-15.508-16.668
		c-20.829-19.717-43.576-36.639-70.151-47.982c-9.309-3.973-18.88-7.161-28.739-9.318c-2.986-0.653-3.062-1.752-2.3-3.967
		c1.848-5.374,3.724-10.738,5.524-16.128c0.746-2.233,1.772-2.766,4.102-1.708c19.999,9.077,38.615,20.361,55.626,34.282
		c29.009,23.738,52.5,52.264,72.721,83.637c0.303,0.47,0.499,1.016,0.686,1.548c0.082,0.235,0.014,0.522,0.014,1.323
		c-7.45-7.037-14.814-13.597-22.574-19.691c-24.206-19.011-50.554-34.086-80.125-43.061c-22.058-6.695-44.693-8.59-67.623-7.029
		c-2.87,0.195-4.011-0.115-3.471-3.175c0.971-5.5,0.836-11.086,0.933-16.636c0.053-3.03,1.162-3.955,4.123-3.726
		c19.812,1.53,39.178,5.225,57.971,11.732c30.361,10.513,56.964,27.244,80.581,48.885c1.441,1.32,2.845,2.68,4.272,4.016
		C166.478,93.949,167.795,95.168,169.108,96.39z"/>
</g>
</svg>
