<?xml version="1.0" encoding="iso-8859-1"?>
<!-- Generator: Adobe Illustrator 17.0.0, SVG Export Plug-In . SVG Version: 6.00 Build 0)  -->
<!DOCTYPE svg PUBLIC "-//W3C//DTD SVG 1.1//EN" "http://www.w3.org/Graphics/SVG/1.1/DTD/svg11.dtd">
<svg version="1.1" id="Layer_1" xmlns="http://www.w3.org/2000/svg" xmlns:xlink="http://www.w3.org/1999/xlink" x="0px" y="0px"
	 width="780.157px" height="780.148px" viewBox="0 0 780.157 780.148" style="enable-background:new 0 0 780.157 780.148;"
	 xml:space="preserve">
<g id="grnCircle_1_">
	<rect x="442.304" y="422.82" style="display:none;fill:#F7EC51;" width="81.349" height="42.815"/>
	<rect x="205.108" y="420.252" style="display:none;fill:#F7EC51;" width="81.349" height="42.815"/>
	<path style="fill:none;stroke:#118532;stroke-width:12;stroke-miterlimit:10;" d="M774.157,390.07
		c0,212.124-171.963,384.078-384.079,384.078c-211.876,0-383.693-171.569-384.07-383.359C6,390.549,6,390.31,6,390.07
		c0-19.096,1.396-37.866,4.093-56.216C37.289,148.386,197.059,6,390.078,6c104.17,0,198.646,41.462,267.835,108.802
		c20.269,19.721,38.371,41.659,53.896,65.43C751.234,240.55,774.157,312.634,774.157,390.07z"/>
</g>
</svg>
