<?xml version="1.0" encoding="iso-8859-1"?>
<!-- Generator: Adobe Illustrator 17.0.0, SVG Export Plug-In . SVG Version: 6.00 Build 0)  -->
<!DOCTYPE svg PUBLIC "-//W3C//DTD SVG 1.1//EN" "http://www.w3.org/Graphics/SVG/1.1/DTD/svg11.dtd">
<svg version="1.1" xmlns="http://www.w3.org/2000/svg" xmlns:xlink="http://www.w3.org/1999/xlink" x="0px" y="0px"
	 width="505.416px" height="189.228px" viewBox="0 0 505.416 189.228" style="enable-background:new 0 0 505.416 189.228;"
	 xml:space="preserve">
<g id="Layer_5">
	<g>
		<path style="fill:#12812F;" d="M505.035,94.743c-67.503,58.854-155.753,94.485-252.327,94.485S67.883,153.597,0.38,94.743
			C67.883,35.881,156.134,0.25,252.708,0.25S437.533,35.881,505.035,94.743z"/>
		<path style="opacity:0.6;fill:#1A9748;stroke:#265418;stroke-width:0.5;stroke-miterlimit:10;" d="M505.035,94.743
			c-5.189,4.521-10.49,8.906-15.919,13.144c-65.19-50.984-147.25-81.349-236.409-81.349S81.49,56.903,16.299,107.888
			C10.87,103.649,5.57,99.265,0.38,94.743C67.883,35.881,156.134,0.25,252.708,0.25S437.533,35.881,505.035,94.743z"/>
	</g>
</g>
<g id="Layer_1">
</g>
</svg>
