<?xml version="1.0" encoding="iso-8859-1"?>
<!-- Generator: Adobe Illustrator 17.0.0, SVG Export Plug-In . SVG Version: 6.00 Build 0)  -->
<!DOCTYPE svg PUBLIC "-//W3C//DTD SVG 1.1//EN" "http://www.w3.org/Graphics/SVG/1.1/DTD/svg11.dtd">
<svg version="1.1" xmlns="http://www.w3.org/2000/svg" xmlns:xlink="http://www.w3.org/1999/xlink" x="0px" y="0px"
	 width="93.474px" height="91.444px" viewBox="0 0 93.474 91.444" style="enable-background:new 0 0 93.474 91.444;"
	 xml:space="preserve">
<g id="Layer_9">
	<path style="fill:#3EA52F;" d="M76.995,90.824c-20.728,3.635-29.115-9.9-29.115-9.9V79.09c1.492,1.812,6.32,6.464,15.679,4.817
		c0,0-1.923-2.398-4.685-4.177c0-0.055,7.723-0.398,13.845-6.607c0.122-0.122-3.945-2.21-10.464-2.088
		c-0.376,0.011-0.751,0.022-1.127,0.044c-0.21,0.011-0.42,0.022-0.63,0.044c-0.575,0.044-1.149,0.099-1.746,0.188
		c-0.21,0.022-0.409,0.055-0.619,0.088c0.011-0.011,0.033-0.022,0.066-0.044c0.199-0.111,0.873-0.508,1.801-1.304l0.232-0.199
		c2.718-2.42,7.348-8.066,9.469-19.557c0.044-0.254-10.574,2.829-16.739,11.149c-0.641,0.851,3.856-13.403-6.232-28.032
		c-10.077,14.629-5.58,28.883-6.221,28.032c-6.165-8.32-16.784-11.403-16.74-11.149c2.121,11.491,6.751,17.137,9.469,19.557
		l0.232,0.199c1.061,0.906,1.779,1.293,1.867,1.348c-8.895-1.381-14.729,1.58-14.585,1.724c6.121,6.21,13.845,6.552,13.845,6.607
		c-2.762,1.779-4.685,4.177-4.685,4.177c9.359,1.646,14.187-3.005,15.679-4.817v1.834c0,0-8.386,13.535-29.115,9.9
		c0,0,3.458-4.32,8.431-7.536c0-0.077-13.889-0.696-24.905-11.867c-0.254-0.254,10.254-5.591,26.253-3.105
		c0,0-15.259-7.734-20.817-37.954c-0.088-0.453,19.005,5.094,30.098,20.043C36.677,51.953,28.611,26.308,46.731,0
		c18.132,26.308,10.055,51.953,11.204,50.406c11.093-14.95,30.175-20.496,30.098-20.043c-5.558,30.22-20.817,37.954-20.817,37.954
		c15.999-2.486,26.507,2.851,26.253,3.105C82.454,82.593,68.554,83.211,68.554,83.289C73.537,86.504,76.995,90.824,76.995,90.824z"
		/>
</g>
<g id="Layer_1">
</g>
</svg>
