<?xml version="1.0" encoding="iso-8859-1"?>
<!-- Generator: Adobe Illustrator 17.0.0, SVG Export Plug-In . SVG Version: 6.00 Build 0)  -->
<!DOCTYPE svg PUBLIC "-//W3C//DTD SVG 1.1//EN" "http://www.w3.org/Graphics/SVG/1.1/DTD/svg11.dtd">
<svg version="1.1" xmlns="http://www.w3.org/2000/svg" xmlns:xlink="http://www.w3.org/1999/xlink" x="0px" y="0px"
	 width="396.981px" height="69.922px" viewBox="0 0 396.981 69.922" style="enable-background:new 0 0 396.981 69.922;"
	 xml:space="preserve">
<g id="Layer_11">
	<g>
		<g>
			<path style="fill:#22ACCC;" d="M13.937,16.31c-2.282-1.173-3.419-1.769-5.687-2.981c-1.132,1.163-1.7,1.743-2.84,2.901
				c-0.702,0.713-1.166,1.277-1.391,1.694c-0.179,0.332-0.229,0.681-0.148,1.048s0.46,0.782,1.139,1.24
				c-0.127,0.238-0.19,0.357-0.317,0.595C2.811,19.803,1.872,19.295,0,18.265c0.13-0.236,0.195-0.354,0.325-0.59
				c0.708,0.181,1.224,0.19,1.545,0.036c0.646-0.311,1.629-1.125,2.928-2.452C10.74,9.226,13.663,6.174,19.411,0
				c0.145,0.076,0.218,0.114,0.363,0.19c-1.838,8.312-2.703,12.489-4.322,20.877c-0.325,1.686-0.422,2.836-0.298,3.448
				c0.124,0.612,0.481,1.099,1.071,1.458c-0.119,0.242-0.179,0.362-0.299,0.604c-2.387-1.181-3.577-1.781-5.949-3.002
				c0.123-0.24,0.185-0.359,0.308-0.599c0.62,0.264,1.099,0.325,1.436,0.183c0.337-0.141,0.597-0.391,0.779-0.748
				c0.242-0.476,0.478-1.303,0.71-2.48C13.498,18.481,13.643,17.757,13.937,16.31z M14.25,14.955
				c0.833-4.063,1.262-6.09,2.147-10.135c-2.847,3.016-4.283,4.516-7.178,7.498C11.226,13.388,12.232,13.915,14.25,14.955z"/>
			<path style="fill:#22ACCC;" d="M31.622,5.405c-3.828,7.985-5.743,11.977-9.571,19.961c-0.452,0.942-0.705,1.589-0.759,1.94
				s-0.022,0.653,0.096,0.904c0.118,0.251,0.442,0.503,0.972,0.755c-0.112,0.237-0.169,0.356-0.281,0.593
				c-2.015-0.956-3.021-1.441-5.026-2.425c0.116-0.236,0.173-0.353,0.289-0.589c0.468,0.23,0.823,0.316,1.063,0.257
				c0.24-0.059,0.488-0.228,0.744-0.509c0.256-0.282,0.609-0.886,1.06-1.815c2.649-5.454,3.973-8.181,6.622-13.635
				c0.823-1.694,1.303-2.747,1.442-3.158c0.139-0.412,0.188-0.715,0.149-0.911c-0.04-0.195-0.144-0.334-0.313-0.416
				c-0.183-0.089-0.457-0.115-0.824-0.078c0.041-0.264,0.061-0.396,0.102-0.66c1.509-0.168,2.261-0.256,3.761-0.44
				C31.339,5.268,31.433,5.314,31.622,5.405z"/>
			<path style="fill:#22ACCC;" d="M28.574,25.878c0.069-0.223-0.596-1.591-0.55-2.554c0.047-0.964,0.3-1.935,0.758-2.914
				c0.7-1.497,1.675-2.609,2.916-3.345c1.241-0.737,2.433-0.842,3.587-0.317c0.944,0.429,1.604,1.151,1.983,2.172
				c0.844,0.377,1.266,0.563,2.111,0.935c0.312,0.137,0.488,0.231,0.527,0.281c0.039,0.05,0.051,0.116,0.047,0.189
				c-0.006,0.113-0.056,0.307-0.168,0.563c-0.127,0.29-0.232,0.488-0.317,0.578c-0.043,0.046-0.104,0.074-0.173,0.083
				c-0.069,0.009-0.261-0.054-0.575-0.192c-0.521-0.229-0.781-0.344-1.301-0.574c0.054,0.98-0.192,2.094-0.742,3.338
				c-0.628,1.422-1.526,2.48-2.702,3.167c-1.176,0.686-2.382,0.752-3.607,0.195c-0.505-0.23-1.174-0.999-1.395-1.038
				c-0.226-0.04-0.909,0.534-1.169,0.796c-0.26,0.261-0.441,0.502-0.543,0.723c-0.086,0.187-0.11,0.398-0.068,0.63
				c0.042,0.233,0.223,0.472,0.547,0.713c0.188,0.14,0.694,0.422,1.516,0.833c1.511,0.756,2.483,1.281,2.895,1.581
				c0.628,0.456,1.022,1.084,1.167,1.891c0.145,0.806,0.02,1.666-0.379,2.578c-0.55,1.258-1.469,2.262-2.764,3.004
				c-1.908,1.094-3.84,1.208-5.764,0.331c-1.48-0.674-2.516-1.737-3.072-3.164c-0.316-0.812-0.329-1.523-0.05-2.116
				c0.124-0.264,0.29-0.508,0.497-0.733c0.319-0.346,0.858-0.786,1.588-1.328c0.099-0.073,1.853-0.836,1.98-1.249
				c0.058-0.188-0.364-0.956-0.399-1.301c-0.035-0.344,0.027-0.687,0.187-1.028c0.18-0.385,0.497-0.786,0.95-1.206
				C26.545,26.979,28.49,26.15,28.574,25.878z M25.913,31.351c-0.314-0.009-1.122,0.799-1.528,1.199
				c-0.406,0.401-0.704,0.805-0.894,1.213c-0.246,0.529-0.242,1.093,0.015,1.694c0.443,1.035,1.387,1.884,2.83,2.537
				c1.374,0.622,2.548,0.721,3.513,0.306c0.965-0.416,1.621-1.027,1.973-1.827c0.254-0.578,0.242-1.078-0.036-1.49
				c-0.282-0.418-1.001-0.906-2.142-1.473C27.978,32.683,26.324,31.363,25.913,31.351z M34.739,17.459
				c-0.535-0.243-1.131-0.122-1.792,0.363c-0.661,0.485-1.303,1.4-1.924,2.745c-0.804,1.743-1.18,3.211-1.117,4.4
				c0.048,0.904,0.372,1.493,0.965,1.762c0.563,0.256,1.169,0.15,1.816-0.318c0.646-0.469,1.271-1.38,1.877-2.733
				c0.789-1.762,1.156-3.257,1.102-4.478C35.626,18.302,35.317,17.722,34.739,17.459z"/>
			<path style="fill:#22ACCC;" d="M46.549,21.656c1.515,0.633,2.37,2.021,2.573,4.173c0.173,1.836-0.132,3.746-0.925,5.717
				c-0.557,1.386-1.342,2.701-2.361,3.94c-1.019,1.239-2.07,2.058-3.151,2.454c-1.082,0.397-2.11,0.393-3.076-0.011
				c-1.575-0.658-2.435-2.116-2.564-4.351c-0.109-1.884,0.261-3.79,1.096-5.718c0.608-1.404,1.444-2.7,2.501-3.891
				c1.057-1.192,2.097-1.961,3.124-2.31C44.794,21.312,45.719,21.31,46.549,21.656z M45.753,22.608
				c-0.387-0.162-0.85-0.15-1.389,0.038c-0.54,0.188-1.118,0.671-1.736,1.451c-0.618,0.779-1.223,1.862-1.814,3.247
				c-0.953,2.235-1.48,4.288-1.569,6.164c-0.088,1.875,0.365,3.022,1.352,3.433c0.736,0.307,1.53,0.108,2.377-0.595
				c0.847-0.703,1.715-2.152,2.61-4.345c1.121-2.744,1.606-5.067,1.487-6.952C46.991,23.76,46.557,22.944,45.753,22.608z"/>
			<path style="fill:#22ACCC;" d="M61.012,32.24c-0.024,0.083,1.52,1.563,1.772,2.506c0.351,1.311,0.259,2.731-0.284,4.252
				c-0.413,1.156-1.051,2.176-1.92,3.057c-0.87,0.882-1.823,1.41-2.857,1.582c-1.035,0.172-2.436-0.067-4.195-0.729
				c-2.95-1.111-4.421-1.681-7.355-2.85c0.1-0.25,0.15-0.376,0.249-0.626c0.233,0.093,0.35,0.139,0.584,0.232
				c0.648,0.257,1.243,0.135,1.757-0.365c0.33-0.322,0.748-1.135,1.253-2.425c2.328-5.945,3.492-8.917,5.82-14.861
				c0.558-1.425,0.806-2.366,0.742-2.82c-0.085-0.607-0.406-1.021-0.96-1.241c-0.22-0.087-0.33-0.131-0.551-0.219
				c0.1-0.25,0.15-0.376,0.249-0.626c2.526,1.006,3.792,1.498,6.33,2.459c1.184,0.448,2.084,0.939,2.701,1.476
				c0.933,0.812,1.502,1.842,1.701,3.095c0.199,1.254,0.058,2.561-0.43,3.922c-0.419,1.166-1.022,2.128-1.815,2.881
				C63.009,31.692,61.012,32.24,61.012,32.24z M55.51,29.119c0.244,0.185,0.534,0.365,0.872,0.539
				C56.719,29.833,57.1,30,57.524,30.16c1.085,0.411,1.969,0.536,2.649,0.381c0.679-0.156,1.3-0.552,1.861-1.188
				c0.561-0.635,1.001-1.392,1.323-2.27c0.497-1.357,0.563-2.645,0.21-3.863c-0.353-1.218-1.201-2.077-2.548-2.587
				c-0.724-0.274-1.423-0.399-2.098-0.373C57.557,23.804,56.875,25.575,55.51,29.119z M51.268,40.137
				c0.768,0.646,1.586,1.134,2.451,1.46c1.386,0.523,2.618,0.451,3.686-0.211c1.068-0.662,1.849-1.681,2.348-3.049
				c0.329-0.902,0.482-1.828,0.463-2.78c-0.019-0.951-0.304-1.799-0.852-2.547c-0.549-0.747-1.354-1.32-2.42-1.724
				c-0.462-0.175-0.861-0.315-1.198-0.418c-0.337-0.103-0.616-0.164-0.839-0.185C53.452,34.465,52.724,36.356,51.268,40.137z"/>
			<path style="fill:#22ACCC;" d="M71.473,31.091c-1.729,5.078-2.593,7.616-4.321,12.694c-0.337,0.989-0.513,1.664-0.528,2.024
				c-0.015,0.361,0.045,0.654,0.18,0.879c0.135,0.225,0.454,0.423,0.958,0.592c-0.084,0.249-0.125,0.373-0.209,0.622
				c-2.072-0.696-3.106-1.051-5.17-1.775c0.087-0.248,0.13-0.372,0.217-0.619c0.517,0.181,0.891,0.228,1.12,0.141
				s0.456-0.285,0.679-0.593c0.224-0.309,0.504-0.951,0.841-1.927c0.841-2.431,1.262-3.647,2.103-6.078
				c0.592-1.71,0.944-2.831,1.048-3.357c0.076-0.383,0.081-0.669,0.019-0.852c-0.062-0.182-0.19-0.307-0.384-0.375
				c-0.209-0.073-0.492-0.076-0.851-0.008c0.024-0.27,0.036-0.404,0.061-0.674c1.504-0.337,2.253-0.509,3.746-0.861
				C71.179,30.99,71.277,31.024,71.473,31.091z M73.382,22.519c0.305,0.105,0.506,0.363,0.605,0.776
				c0.099,0.412,0.067,0.859-0.097,1.343c-0.164,0.483-0.413,0.86-0.746,1.131c-0.334,0.271-0.655,0.354-0.963,0.249
				c-0.308-0.106-0.512-0.369-0.613-0.789c-0.1-0.42-0.066-0.871,0.1-1.353c0.167-0.483,0.417-0.855,0.748-1.12
				C72.748,22.491,73.069,22.412,73.382,22.519z"/>
			<path style="fill:#22ACCC;" d="M80.918,34.175c-0.679,2.17-1.018,3.255-1.696,5.426c-0.15-0.047-0.225-0.07-0.375-0.117
				c0.246-1.795,0.245-3.068-0.007-3.824c-0.252-0.755-0.721-1.242-1.409-1.463c-0.523-0.169-1.015-0.092-1.476,0.23
				c-0.461,0.322-0.777,0.743-0.947,1.263c-0.211,0.646-0.265,1.245-0.181,1.781c0.085,0.543,0.392,1.207,0.942,1.971
				c0.506,0.706,0.76,1.059,1.271,1.763c1.182,1.637,1.494,3.391,0.911,5.27c-0.45,1.45-1.178,2.506-2.192,3.162
				c-1.013,0.657-1.98,0.838-2.892,0.545c-0.655-0.21-1.368-0.623-2.074-1.245c-0.219-0.193-0.409-0.326-0.573-0.38
				c-0.179-0.059-0.368,0.046-0.568,0.312c-0.154-0.051-0.231-0.076-0.385-0.127c0.748-2.263,1.123-3.394,1.871-5.657
				c0.152,0.05,0.227,0.075,0.379,0.125c-0.318,1.686-0.306,3.039,0.038,4.059c0.344,1.019,0.9,1.653,1.662,1.897
				c0.536,0.172,1.049,0.076,1.536-0.286c0.486-0.362,0.833-0.874,1.041-1.534c0.252-0.799,0.276-1.53,0.075-2.193
				c-0.201-0.663-0.726-1.587-1.565-2.777c-0.839-1.191-1.312-2.181-1.435-2.961c-0.122-0.768-0.02-1.656,0.312-2.659
				c0.431-1.304,1.083-2.296,1.95-2.983s1.756-0.882,2.674-0.587c0.403,0.13,0.849,0.422,1.34,0.868
				c0.325,0.295,0.553,0.462,0.681,0.502c0.119,0.038,0.226,0.026,0.319-0.034c0.093-0.06,0.228-0.215,0.405-0.465
				C80.696,34.105,80.77,34.128,80.918,34.175z"/>
			<path style="fill:#18802D;" d="M95.276,47.593c-2.431-0.645-3.644-0.977-6.067-1.66c-0.848,1.381-1.274,2.071-2.13,3.448
				c-0.527,0.848-0.857,1.499-0.987,1.955c-0.104,0.362-0.08,0.714,0.073,1.054s0.601,0.661,1.346,0.958
				c-0.073,0.259-0.109,0.389-0.182,0.649c-2.011-0.565-3.016-0.854-5.021-1.445c0.076-0.259,0.114-0.388,0.19-0.646
				c0.716,0.021,1.212-0.084,1.489-0.305c0.556-0.444,1.332-1.454,2.306-3.031c4.465-7.179,6.643-10.793,10.893-18.066
				c0.155,0.042,0.233,0.063,0.388,0.105c-0.06,8.502-0.034,12.76,0.134,21.29c0.034,1.715,0.177,2.856,0.422,3.426
				c0.245,0.57,0.688,0.966,1.328,1.188c-0.065,0.262-0.098,0.392-0.163,0.654c-2.535-0.631-3.801-0.957-6.329-1.629
				c0.069-0.26,0.104-0.391,0.173-0.651c0.649,0.122,1.122,0.076,1.417-0.135c0.295-0.211,0.493-0.511,0.594-0.899
				c0.135-0.517,0.191-1.374,0.173-2.572C95.301,49.805,95.291,49.067,95.276,47.593z M95.299,46.204
				c-0.034-4.141-0.037-6.211-0.018-10.345c-2.114,3.562-3.184,5.338-5.35,8.877C92.075,45.338,93.149,45.631,95.299,46.204z"/>
			<path style="fill:#18802D;" d="M110.023,33.109c-2.037,8.618-3.056,12.926-5.093,21.544c-0.24,1.017-0.351,1.702-0.33,2.056
				c0.02,0.354,0.113,0.642,0.278,0.861c0.166,0.219,0.529,0.395,1.09,0.525c-0.059,0.256-0.089,0.384-0.148,0.639
				c-2.134-0.495-3.2-0.749-5.329-1.272c0.063-0.255,0.094-0.382,0.157-0.637c0.497,0.122,0.855,0.129,1.074,0.019
				c0.219-0.11,0.422-0.329,0.611-0.658c0.188-0.33,0.403-0.997,0.646-2c1.424-5.894,2.136-8.841,3.559-14.735
				c0.442-1.83,0.687-2.962,0.736-3.393c0.049-0.432,0.034-0.738-0.044-0.92c-0.079-0.182-0.207-0.294-0.386-0.338
				c-0.194-0.047-0.463-0.012-0.808,0.103c-0.015-0.266-0.023-0.4-0.038-0.666c1.415-0.492,2.12-0.742,3.523-1.247
				C109.723,33.038,109.823,33.062,110.023,33.109z"/>
			<path style="fill:#18802D;" d="M111.309,53.737c0.02-0.235-0.901-1.423-1.055-2.372c-0.154-0.951-0.109-1.952,0.129-3.006
				c0.365-1.612,1.073-2.908,2.115-3.895c1.042-0.987,2.166-1.348,3.385-1.086c0.998,0.214,1.781,0.776,2.356,1.69
				c0.89,0.185,1.335,0.276,2.226,0.456c0.329,0.066,0.517,0.12,0.565,0.161c0.047,0.04,0.073,0.102,0.084,0.174
				c0.018,0.112,0.009,0.312-0.045,0.586c-0.062,0.31-0.123,0.526-0.186,0.632c-0.032,0.054-0.085,0.095-0.15,0.118
				c-0.065,0.024-0.263,0.003-0.593-0.063c-0.549-0.111-0.823-0.167-1.371-0.279c0.254,0.944,0.246,2.084-0.025,3.417
				c-0.311,1.523-0.957,2.75-1.947,3.674c-0.99,0.923-2.137,1.248-3.431,0.97c-0.533-0.115-1.339-0.72-1.556-0.711
				c-0.224,0.009-0.764,0.718-0.96,1.029c-0.196,0.311-0.321,0.585-0.374,0.823c-0.045,0.201-0.023,0.412,0.065,0.63
				c0.088,0.218,0.312,0.412,0.672,0.577c0.21,0.096,0.755,0.261,1.63,0.485c1.61,0.411,2.653,0.713,3.113,0.916
				c0.698,0.309,1.208,0.837,1.514,1.593c0.306,0.755,0.363,1.621,0.167,2.598c-0.27,1.346-0.947,2.524-2.041,3.528
				c-1.612,1.48-3.447,2.008-5.48,1.568c-1.562-0.338-2.779-1.15-3.607-2.421c-0.471-0.723-0.63-1.414-0.484-2.053
				c0.065-0.285,0.174-0.558,0.327-0.823c0.236-0.407,0.663-0.953,1.254-1.639c0.08-0.093,1.61-1.209,1.647-1.647
				c0.017-0.198-0.547-0.854-0.652-1.183c-0.105-0.328-0.115-0.676-0.032-1.043c0.094-0.414,0.316-0.875,0.665-1.382
				C109.584,55.252,111.284,54.03,111.309,53.737z M109.877,59.653c-0.304,0.058-0.915,1.022-1.222,1.501
				c-0.308,0.48-0.511,0.937-0.61,1.377c-0.128,0.569-0.007,1.119,0.363,1.649c0.638,0.913,1.723,1.537,3.246,1.862
				c1.451,0.309,2.601,0.153,3.444-0.461c0.843-0.615,1.349-1.353,1.522-2.209c0.125-0.619,0.011-1.104-0.342-1.446
				c-0.358-0.347-1.151-0.668-2.366-0.974C112.139,60.505,110.269,59.578,109.877,59.653z M115.504,44.19
				c-0.564-0.122-1.113,0.126-1.649,0.742s-0.965,1.648-1.285,3.094c-0.414,1.874-0.473,3.387-0.168,4.534
				c0.232,0.871,0.665,1.376,1.291,1.51c0.594,0.128,1.156-0.107,1.682-0.704c0.526-0.597,0.939-1.621,1.242-3.072
				c0.396-1.89,0.44-3.428,0.137-4.607C116.532,44.821,116.114,44.322,115.504,44.19z"/>
			<path style="fill:#18802D;" d="M127.743,45.738c1.591,0.291,2.702,1.462,3.344,3.52c0.547,1.756,0.649,3.685,0.293,5.78
				c-0.25,1.473-0.734,2.924-1.461,4.354c-0.726,1.428-1.57,2.454-2.53,3.073c-0.96,0.62-1.952,0.837-2.967,0.651
				c-1.654-0.304-2.783-1.541-3.369-3.694c-0.494-1.815-0.532-3.754-0.126-5.816c0.295-1.501,0.833-2.946,1.605-4.336
				c0.772-1.391,1.615-2.366,2.532-2.927C125.98,45.779,126.87,45.578,127.743,45.738z M127.173,46.837
				c-0.407-0.075-0.85,0.036-1.331,0.336c-0.482,0.299-0.938,0.896-1.372,1.79c-0.433,0.894-0.794,2.081-1.076,3.56
				c-0.456,2.387-0.539,4.504-0.236,6.354c0.302,1.849,0.977,2.871,2.012,3.06c0.773,0.141,1.498-0.224,2.167-1.092
				c0.671-0.868,1.208-2.469,1.617-4.802c0.512-2.919,0.499-5.291-0.005-7.106C128.603,47.695,128.016,46.993,127.173,46.837z"/>
			<path style="fill:#18802D;" d="M137.443,47.39c-0.234,1.483-0.351,2.224-0.585,3.707c1.281-2.331,2.373-3.428,3.303-3.288
				c0.422,0.064,0.742,0.316,0.959,0.76c0.217,0.444,0.288,0.93,0.21,1.458c-0.069,0.469-0.227,0.85-0.477,1.145
				c-0.249,0.295-0.514,0.422-0.793,0.38c-0.272-0.041-0.545-0.294-0.819-0.759c-0.274-0.465-0.491-0.711-0.653-0.736
				c-0.139-0.021-0.308,0.081-0.508,0.291c-0.415,0.438-0.91,1.192-1.461,2.261c-0.498,3.16-0.748,4.74-1.246,7.901
				c-0.144,0.913-0.177,1.614-0.1,2.106c0.053,0.341,0.194,0.639,0.424,0.897c0.23,0.256,0.593,0.423,1.089,0.499
				c-0.04,0.259-0.06,0.389-0.099,0.649c-2.255-0.344-3.381-0.525-5.632-0.9c0.043-0.259,0.065-0.388,0.108-0.647
				c0.559,0.093,0.996,0.029,1.311-0.189c0.23-0.159,0.42-0.444,0.568-0.849c0.072-0.197,0.188-0.775,0.344-1.734
				c0.415-2.554,0.623-3.83,1.039-6.384c0.312-1.918,0.472-3.065,0.481-3.438c0.009-0.374-0.04-0.656-0.147-0.846
				c-0.108-0.19-0.262-0.301-0.463-0.334c-0.239-0.039-0.524,0.005-0.855,0.135c-0.003-0.267-0.004-0.4-0.007-0.667
				c1.415-0.591,2.12-0.889,3.523-1.493C137.153,47.344,137.25,47.36,137.443,47.39z"/>
			<path style="fill:#18802D;" d="M145.858,48.624c-0.722,5.315-1.083,7.973-1.804,13.287c-0.141,1.035-0.185,1.731-0.131,2.087
				c0.053,0.357,0.167,0.633,0.34,0.827s0.521,0.327,1.042,0.396c-0.034,0.26-0.051,0.39-0.086,0.651
				c-2.144-0.282-3.215-0.43-5.356-0.74c0.038-0.26,0.056-0.39,0.094-0.649c0.536,0.078,0.907,0.052,1.114-0.079
				c0.206-0.13,0.389-0.368,0.548-0.713c0.159-0.346,0.31-1.03,0.454-2.052c0.359-2.548,0.538-3.821,0.896-6.369
				c0.252-1.792,0.383-2.96,0.385-3.496c0.001-0.391-0.047-0.672-0.142-0.84c-0.095-0.166-0.242-0.264-0.444-0.293
				c-0.216-0.031-0.492,0.021-0.828,0.157c-0.028-0.269-0.041-0.404-0.069-0.673c1.397-0.622,2.092-0.936,3.477-1.57
				C145.553,48.583,145.655,48.597,145.858,48.624z M146.095,39.847c0.316,0.044,0.56,0.258,0.734,0.644s0.227,0.83,0.159,1.336
				c-0.068,0.505-0.238,0.924-0.511,1.254c-0.273,0.331-0.57,0.474-0.888,0.43c-0.319-0.044-0.567-0.263-0.744-0.656
				c-0.177-0.393-0.229-0.842-0.158-1.347c0.071-0.506,0.243-0.919,0.515-1.243S145.772,39.803,146.095,39.847z"/>
			<path style="fill:#18802D;" d="M152.448,44.434c-0.262,2.178-0.393,3.267-0.655,5.445c0.99,0.119,1.486,0.177,2.477,0.29
				c-0.058,0.507-0.087,0.76-0.144,1.267c-0.994-0.113-1.491-0.171-2.485-0.291c-0.517,4.298-0.775,6.447-1.292,10.745
				c-0.129,1.073-0.115,1.809,0.044,2.206c0.16,0.399,0.399,0.617,0.719,0.655c0.265,0.031,0.535-0.063,0.812-0.282
				c0.277-0.219,0.51-0.562,0.701-1.028c0.187,0.021,0.28,0.032,0.467,0.053c-0.413,1.151-0.912,1.996-1.494,2.533
				c-0.584,0.538-1.15,0.774-1.697,0.708c-0.37-0.044-0.714-0.242-1.029-0.593c-0.316-0.351-0.522-0.823-0.619-1.417
				c-0.097-0.593-0.07-1.487,0.079-2.68c0.558-4.454,0.837-6.682,1.394-11.136c-0.673-0.084-1.009-0.127-1.682-0.214
				c0.031-0.239,0.046-0.358,0.077-0.597c0.459-0.21,0.951-0.603,1.473-1.18c0.522-0.577,1.016-1.28,1.461-2.104
				c0.233-0.433,0.58-1.244,1.04-2.424C152.236,44.409,152.306,44.417,152.448,44.434z"/>
			<path style="fill:#18802D;" d="M159.364,41.448c-0.502,4.857-0.752,7.286-1.254,12.143c1.016-1.385,1.79-2.263,2.333-2.631
				c0.544-0.368,1.065-0.528,1.567-0.48c0.602,0.057,1.095,0.364,1.482,0.923c0.386,0.559,0.635,1.406,0.748,2.536
				c0.079,0.787,0.031,2.209-0.148,4.266c-0.205,2.352-0.308,3.529-0.513,5.881c-0.092,1.053-0.096,1.78-0.02,2.174
				c0.057,0.295,0.172,0.539,0.35,0.725c0.179,0.186,0.526,0.301,1.041,0.344c-0.022,0.262-0.033,0.392-0.054,0.654
				c-2.177-0.181-3.265-0.279-5.44-0.488c0.025-0.261,0.038-0.392,0.063-0.653c0.101,0.01,0.152,0.015,0.253,0.024
				c0.515,0.049,0.884-0.035,1.107-0.251c0.222-0.218,0.41-0.56,0.518-1.004c0.045-0.185,0.106-0.759,0.193-1.702
				c0.217-2.351,0.325-3.527,0.542-5.878c0.167-1.814,0.216-3.01,0.147-3.591c-0.068-0.579-0.221-1.024-0.458-1.333
				s-0.542-0.482-0.915-0.518c-0.381-0.037-0.792,0.082-1.235,0.355c-0.443,0.274-1,0.859-1.676,1.753
				c-0.362,3.509-0.544,5.263-0.906,8.772c-0.117,1.136-0.148,1.847-0.093,2.134c0.055,0.286,0.188,0.535,0.398,0.745
				c0.21,0.211,0.596,0.344,1.16,0.4c-0.026,0.261-0.039,0.392-0.065,0.653c-2.194-0.217-3.29-0.332-5.481-0.578
				c0.029-0.261,0.044-0.391,0.073-0.652c0.489,0.055,0.89-0.027,1.194-0.215c0.168-0.104,0.327-0.319,0.46-0.646
				s0.255-1.011,0.368-2.049c0.65-6.006,0.975-9.01,1.625-15.016c0.205-1.896,0.302-3.064,0.293-3.506
				c-0.01-0.441-0.066-0.746-0.166-0.916c-0.101-0.17-0.249-0.266-0.447-0.288c-0.159-0.018-0.428,0.051-0.806,0.204
				c-0.035-0.261-0.053-0.391-0.088-0.652c1.337-0.671,2.003-1.009,3.328-1.692C159.051,41.416,159.155,41.426,159.364,41.448z"/>
			<path style="fill:#18802D;" d="M170.109,54.72c0.868-1.155,1.374-1.82,1.526-1.993c0.382-0.434,0.782-0.767,1.201-0.995
				c0.419-0.228,0.826-0.329,1.22-0.304c0.665,0.042,1.219,0.38,1.664,1.015c0.445,0.635,0.816,2.693,0.816,2.693
				c0.084,0.02,1.612-2.329,2.186-2.756c0.574-0.426,1.15-0.625,1.73-0.598c0.565,0.027,1.056,0.276,1.474,0.75
				c0.419,0.475,0.739,1.235,0.95,2.274c0.144,0.708,0.184,1.819,0.124,3.323c-0.115,2.869-0.173,4.304-0.288,7.173
				c-0.042,1.044-0.023,1.769,0.071,2.155c0.065,0.267,0.21,0.503,0.42,0.7c0.21,0.197,0.562,0.304,1.054,0.322
				c-0.009,0.262-0.014,0.393-0.024,0.656c-2.191-0.079-3.287-0.126-5.477-0.234c0.013-0.262,0.019-0.393,0.032-0.655
				c0.092,0.005,0.138,0.007,0.23,0.011c0.475,0.023,0.853-0.098,1.132-0.366c0.194-0.186,0.35-0.495,0.441-0.91
				c0.044-0.201,0.084-0.793,0.127-1.764c0.129-2.869,0.194-4.303,0.323-7.172c0.061-1.358,0.002-2.326-0.186-2.889
				c-0.262-0.787-0.737-1.201-1.406-1.234c-0.413-0.02-0.835,0.119-1.269,0.418c-0.434,0.3-0.971,0.869-1.615,1.71
				c-0.014,0.079-0.021,0.119-0.035,0.199c-0.008,0.313-0.012,0.47-0.02,0.783c-0.18,3.18-0.27,4.77-0.449,7.949
				c-0.064,1.14-0.063,1.852,0.006,2.136c0.068,0.284,0.215,0.526,0.438,0.727c0.223,0.201,0.617,0.316,1.182,0.346
				c-0.014,0.262-0.02,0.393-0.034,0.655c-2.243-0.117-3.365-0.183-5.607-0.33c0.017-0.262,0.026-0.393,0.043-0.655
				c0.612,0.04,1.04-0.042,1.283-0.245c0.244-0.204,0.424-0.523,0.538-0.953c0.053-0.202,0.11-0.802,0.171-1.797
				c0.176-2.866,0.264-4.299,0.44-7.165c0.083-1.357,0.016-2.345-0.206-2.951c-0.291-0.795-0.748-1.215-1.362-1.256
				c-0.42-0.028-0.848,0.126-1.284,0.443c-0.674,0.49-1.226,1.052-1.626,1.693c-0.26,3.569-0.39,5.353-0.65,8.922
				c-0.079,1.09-0.081,1.803-0.004,2.137c0.076,0.335,0.207,0.591,0.393,0.767c0.186,0.178,0.581,0.288,1.185,0.33
				c-0.018,0.262-0.027,0.393-0.045,0.655c-2.193-0.15-3.289-0.232-5.481-0.412c0.021-0.262,0.032-0.392,0.054-0.654
				c0.507,0.042,0.868-0.012,1.082-0.16c0.214-0.147,0.387-0.396,0.52-0.745c0.132-0.348,0.238-1.038,0.318-2.068
				c0.198-2.543,0.297-3.815,0.494-6.358c0.142-1.828,0.2-3.013,0.17-3.55c-0.022-0.403-0.088-0.686-0.192-0.847
				c-0.105-0.16-0.259-0.249-0.46-0.265c-0.218-0.017-0.485,0.052-0.804,0.209c-0.049-0.267-0.073-0.401-0.121-0.668
				c1.353-0.708,2.027-1.064,3.367-1.783c0.2,0.015,0.299,0.022,0.499,0.037C170.264,52.594,170.212,53.303,170.109,54.72z"/>
			<path style="fill:#18802D;" d="M192.58,52.169c-0.038,2.274-0.057,3.41-0.095,5.684c-0.156-0.003-0.234-0.004-0.389-0.007
				c-0.267-1.791-0.625-3.012-1.075-3.666c-0.45-0.653-1.031-0.987-1.745-1.005c-0.544-0.013-0.989,0.199-1.336,0.639
				c-0.347,0.44-0.53,0.932-0.546,1.479c-0.02,0.679,0.096,1.269,0.325,1.759c0.232,0.497,0.709,1.047,1.443,1.624
				c0.677,0.534,1.017,0.8,1.698,1.332c1.578,1.236,2.365,2.83,2.336,4.798c-0.022,1.518-0.419,2.737-1.197,3.652
				c-0.778,0.916-1.645,1.363-2.592,1.341c-0.68-0.016-1.472-0.211-2.314-0.607c-0.261-0.123-0.479-0.197-0.649-0.202
				c-0.186-0.006-0.337,0.148-0.451,0.46c-0.16-0.005-0.24-0.008-0.4-0.013c0.078-2.382,0.117-3.573,0.196-5.955
				c0.158,0.005,0.237,0.008,0.395,0.013c0.169,1.707,0.558,3.002,1.168,3.882c0.611,0.88,1.314,1.331,2.105,1.349
				c0.557,0.013,1.017-0.223,1.377-0.708c0.36-0.485,0.547-1.074,0.56-1.766c0.016-0.838-0.165-1.545-0.541-2.124
				s-1.132-1.317-2.26-2.221c-1.128-0.905-1.853-1.721-2.187-2.433c-0.329-0.702-0.481-1.583-0.446-2.639
				c0.045-1.372,0.386-2.509,1.017-3.413c0.63-0.904,1.419-1.343,2.372-1.32c0.419,0.01,0.923,0.164,1.513,0.454
				c0.391,0.191,0.654,0.287,0.786,0.289c0.124,0.002,0.222-0.039,0.293-0.122c0.071-0.084,0.157-0.271,0.254-0.56
				C192.35,52.165,192.426,52.167,192.58,52.169z"/>
			<path style="fill:#18802D;" d="M212.353,53.281c1.958-0.065,2.937-0.103,4.894-0.192c0.012,0.269,0.018,0.404,0.031,0.673
				c-0.673,0.116-1.163,0.371-1.47,0.766c-0.308,0.396-0.764,1.573-1.383,3.529c-0.618,1.956-2.207,4.53-2.162,5.49
				c0.035,0.757,1.418,2.101,1.999,2.584c0.58,0.483,1.156,0.713,1.727,0.689c0.555-0.023,1.015-0.27,1.38-0.742
				c0.365-0.473,0.606-1.155,0.725-2.049c0.186,0.188,0.279,0.283,0.466,0.471c-0.214,1.725-0.634,3.009-1.26,3.851
				c-0.626,0.842-1.382,1.281-2.264,1.315c-0.663,0.025-1.348-0.221-2.048-0.738c-0.7-0.517-2.212-2.671-2.312-2.673
				c-0.29-0.004-1.837,2.311-2.63,2.844c-0.792,0.534-1.649,0.808-2.563,0.822c-1.335,0.02-2.403-0.504-3.193-1.566
				c-0.791-1.063-1.184-2.338-1.191-3.819c-0.007-1.47,0.334-2.938,1.01-4.407s3.511-3.584,3.799-4.592
				c0.164-0.573-0.653-2.288-0.796-3.094c-0.144-0.806-0.22-1.579-0.231-2.319c-0.03-2.077,0.43-3.668,1.37-4.779
				c0.73-0.863,1.566-1.306,2.515-1.33c0.903-0.022,1.65,0.385,2.247,1.224c0.597,0.838,0.919,1.882,0.96,3.133
				c0.042,1.286-0.2,2.425-0.732,3.414c-0.532,0.988-2.727,2.571-2.905,3.267c-0.303,1.184,3.333,7.455,3.333,7.455
				c0.322-0.001,1.93-4.767,1.867-6.515c-0.02-0.558-0.159-1.053-0.404-1.481c-0.183-0.319-0.434-0.508-0.756-0.558
				C212.366,53.685,212.362,53.551,212.353,53.281z M210.021,65.217c0.1-1.122-1.873-3.739-2.298-4.738
				c-0.424-1-1.327-3.71-1.396-3.727c-0.197-0.05-1.622,1.788-2.086,2.802c-0.465,1.015-0.694,2.11-0.681,3.287
				c0.014,1.3,0.301,2.439,0.867,3.416c0.567,0.976,1.323,1.458,2.265,1.441c0.507-0.009,0.994-0.172,1.457-0.485
				C208.612,66.898,209.971,65.781,210.021,65.217z M207.911,53.877c0.199,0.064,1.647-1.57,2.098-2.494
				c0.451-0.924,0.657-1.944,0.624-3.062c-0.026-0.874-0.217-1.591-0.572-2.153c-0.355-0.561-0.783-0.835-1.285-0.823
				c-0.662,0.016-1.155,0.395-1.479,1.136c-0.324,0.742-0.481,1.465-0.467,2.169c0.012,0.595,0.09,1.258,0.236,1.991
				C207.21,51.374,207.818,53.848,207.911,53.877z"/>
			<path style="fill:#18802D;" d="M238.098,42.179c0.477,3.329,0.718,4.993,1.201,8.321c-0.144,0.015-0.215,0.022-0.359,0.036
				c-0.732-2.454-1.587-4.187-2.568-5.204c-0.981-1.016-2.077-1.469-3.3-1.363c-1.025,0.089-1.916,0.581-2.68,1.477
				c-0.764,0.896-1.318,2.268-1.663,4.121c-0.345,1.853-0.423,4.131-0.226,6.831c0.163,2.229,0.536,4.144,1.128,5.744
				c0.592,1.6,1.397,2.8,2.417,3.595c1.02,0.796,2.145,1.142,3.367,1.034c1.061-0.094,1.967-0.523,2.712-1.283
				c0.744-0.759,1.502-2.203,2.255-4.331c0.162,0.13,0.243,0.195,0.406,0.325c-0.585,2.271-1.38,3.967-2.375,5.087
				c-0.996,1.12-2.254,1.748-3.764,1.878c-2.72,0.234-4.951-1.126-6.644-4.049c-1.26-2.175-1.98-4.795-2.183-7.849
				c-0.164-2.46,0.041-4.744,0.6-6.852c0.558-2.109,1.401-3.772,2.527-4.998c1.126-1.225,2.397-1.898,3.827-2.022
				c1.112-0.097,2.265,0.236,3.415,1.007c0.343,0.23,0.585,0.346,0.721,0.333c0.205-0.02,0.38-0.155,0.502-0.396
				c0.169-0.336,0.26-0.814,0.286-1.402C237.86,42.203,237.939,42.195,238.098,42.179z"/>
			<path style="fill:#18802D;" d="M248.981,63.974c-0.108-0.025-1.591,2.298-1.856,2.534c-0.396,0.353-0.845,0.556-1.336,0.612
				c-0.765,0.087-1.439-0.236-2.018-0.967c-0.579-0.732-0.935-1.738-1.072-3.018c-0.087-0.81-0.04-1.524,0.132-2.141
				c0.238-0.852,0.716-1.689,1.435-2.504c0.719-0.813,1.946-1.845,3.666-3.107c-0.032-0.26-0.048-0.39-0.079-0.65
				c-0.202-1.652-0.509-2.764-0.921-3.339c-0.411-0.574-0.936-0.823-1.578-0.748c-0.487,0.057-0.848,0.311-1.089,0.749
				c-0.244,0.443-0.342,0.931-0.282,1.462c0.057,0.419,0.085,0.629,0.142,1.048c0.063,0.555,0.019,0.993-0.131,1.316
				c-0.15,0.322-0.373,0.501-0.671,0.534c-0.289,0.032-0.544-0.099-0.762-0.394c-0.218-0.294-0.355-0.712-0.414-1.256
				c-0.112-1.039,0.128-2.029,0.713-2.974c0.585-0.944,1.486-1.485,2.712-1.63c0.94-0.111,1.74,0.042,2.403,0.462
				c0.502,0.317,0.913,0.86,1.228,1.627c0.206,0.5,0.41,1.553,0.613,3.155c0.286,2.248,0.428,3.372,0.714,5.621
				c0.201,1.579,0.343,2.543,0.428,2.894c0.085,0.35,0.181,0.579,0.289,0.689c0.107,0.108,0.221,0.155,0.341,0.139
				c0.127-0.016,0.236-0.073,0.319-0.17c0.148-0.174,0.415-0.659,0.797-1.444c0.053,0.404,0.08,0.606,0.133,1.011
				c-0.656,1.924-1.404,2.939-2.223,3.041c-0.394,0.049-0.734-0.117-1.017-0.499C249.316,65.647,248.981,63.974,248.981,63.974z
				 M248.838,62.799c-0.308-2.525-0.462-3.787-0.771-6.312c-1.096,0.868-1.805,1.472-2.116,1.811
				c-0.556,0.604-0.944,1.209-1.147,1.819c-0.204,0.61-0.268,1.259-0.191,1.947c0.097,0.869,0.35,1.572,0.757,2.105
				c0.409,0.535,0.838,0.776,1.287,0.724C247.265,64.822,247.997,64.125,248.838,62.799z"/>
			<path style="fill:#18802D;" d="M255.271,51.807c0.919-2.51,1.922-3.848,3.043-4.017c0.576-0.087,1.105,0.062,1.591,0.448
				c0.485,0.386,0.934,1.076,1.342,2.069c0.284,0.691,0.544,1.783,0.779,3.27c0.445,2.815,0.667,4.222,1.112,7.037
				c0.165,1.044,0.335,1.744,0.503,2.098c0.135,0.284,0.314,0.497,0.536,0.634c0.223,0.137,0.598,0.163,1.125,0.077
				c0.042,0.259,0.063,0.389,0.105,0.648c-2.175,0.353-3.264,0.522-5.442,0.846c-0.039-0.26-0.058-0.389-0.096-0.649
				c0.091-0.014,0.137-0.02,0.228-0.034c0.512-0.076,0.853-0.247,1.021-0.512c0.168-0.266,0.257-0.632,0.268-1.101
				c0.004-0.185-0.067-0.752-0.212-1.7c-0.414-2.701-0.62-4.052-1.034-6.753c-0.23-1.501-0.523-2.571-0.878-3.211
				c-0.355-0.641-0.829-0.915-1.424-0.827c-0.919,0.137-1.719,1.05-2.416,2.744c0.494,3.485,0.741,5.228,1.235,8.713
				c0.159,1.119,0.303,1.804,0.426,2.056c0.162,0.33,0.352,0.566,0.571,0.7c0.219,0.134,0.629,0.159,1.23,0.071
				c0.038,0.26,0.057,0.39,0.095,0.649c-2.179,0.318-3.27,0.47-5.452,0.759c-0.035-0.26-0.052-0.39-0.086-0.651
				c0.096-0.013,0.144-0.019,0.24-0.032c0.561-0.075,0.911-0.339,1.049-0.793c0.138-0.453,0.124-1.282-0.041-2.486
				c-0.336-2.455-0.504-3.682-0.839-6.137c-0.272-1.985-0.466-3.191-0.584-3.616c-0.117-0.426-0.247-0.709-0.388-0.848
				c-0.141-0.14-0.313-0.197-0.514-0.17c-0.217,0.029-0.464,0.154-0.742,0.375c-0.104-0.251-0.156-0.376-0.26-0.628
				c1.174-0.978,1.758-1.469,2.917-2.456c0.198-0.028,0.297-0.042,0.496-0.07C254.974,49.707,255.073,50.407,255.271,51.807z"/>
			<path style="fill:#18802D;" d="M267.165,49.939c0.844-2.537,1.808-3.904,2.925-4.107c0.574-0.104,1.108,0.029,1.605,0.399
				c0.497,0.372,0.967,1.048,1.405,2.027c0.305,0.683,0.597,1.766,0.877,3.245c0.53,2.8,0.794,4.2,1.324,7
				c0.196,1.038,0.387,1.733,0.566,2.081c0.144,0.28,0.329,0.487,0.556,0.617s0.603,0.144,1.128,0.043
				c0.05,0.258,0.075,0.387,0.125,0.644c-2.166,0.419-3.25,0.621-5.421,1.01c-0.046-0.258-0.07-0.388-0.116-0.646
				c0.091-0.016,0.136-0.024,0.227-0.041c0.51-0.092,0.846-0.273,1.006-0.543c0.16-0.271,0.239-0.639,0.235-1.108
				c-0.002-0.185-0.089-0.749-0.263-1.693c-0.495-2.688-0.742-4.032-1.237-6.719c-0.275-1.493-0.6-2.554-0.974-3.183
				c-0.374-0.629-0.857-0.89-1.449-0.783c-0.916,0.165-1.689,1.102-2.335,2.816c0.599,3.469,0.898,5.203,1.497,8.672
				c0.192,1.113,0.357,1.794,0.488,2.042c0.172,0.325,0.369,0.555,0.592,0.682c0.223,0.127,0.634,0.139,1.233,0.034
				c0.046,0.258,0.069,0.388,0.114,0.646c-2.171,0.384-3.257,0.569-5.432,0.924c-0.042-0.259-0.064-0.389-0.106-0.648
				c0.096-0.016,0.144-0.023,0.24-0.039c0.559-0.092,0.901-0.366,1.026-0.825c0.125-0.457,0.086-1.286-0.115-2.484
				c-0.41-2.444-0.614-3.666-1.024-6.109c-0.331-1.976-0.562-3.175-0.692-3.597c-0.13-0.422-0.268-0.701-0.414-0.836
				c-0.146-0.136-0.319-0.188-0.519-0.154c-0.216,0.036-0.46,0.168-0.731,0.397c-0.112-0.248-0.168-0.372-0.279-0.619
				c1.145-1.013,1.714-1.522,2.845-2.544c0.198-0.034,0.296-0.051,0.494-0.085C266.804,47.85,266.924,48.546,267.165,49.939z"/>
			<path style="fill:#18802D;" d="M284.245,58.106c-0.11-0.016-1.391,2.428-1.635,2.687c-0.365,0.386-0.796,0.628-1.282,0.726
				c-0.757,0.153-1.458-0.109-2.1-0.787c-0.642-0.678-1.085-1.65-1.332-2.913c-0.157-0.799-0.172-1.515-0.053-2.144
				c0.164-0.87,0.569-1.745,1.217-2.62c0.648-0.873,1.785-2.008,3.395-3.416c-0.054-0.256-0.081-0.385-0.136-0.641
				c-0.344-1.628-0.748-2.709-1.209-3.246c-0.46-0.536-1.007-0.738-1.641-0.607c-0.481,0.099-0.821,0.384-1.023,0.841
				c-0.205,0.462-0.261,0.958-0.155,1.481c0.093,0.413,0.139,0.619,0.232,1.032c0.111,0.547,0.105,0.988-0.017,1.322
				c-0.122,0.334-0.33,0.531-0.624,0.59c-0.286,0.057-0.552-0.051-0.795-0.326c-0.243-0.273-0.417-0.678-0.522-1.215
				c-0.202-1.025-0.048-2.032,0.455-3.025c0.502-0.992,1.357-1.61,2.569-1.861c0.93-0.193,1.743-0.11,2.442,0.25
				c0.529,0.272,0.987,0.777,1.369,1.513c0.249,0.48,0.544,1.511,0.886,3.09c0.48,2.215,0.72,3.323,1.2,5.538
				c0.337,1.556,0.563,2.504,0.678,2.846c0.115,0.342,0.231,0.561,0.348,0.661c0.117,0.099,0.234,0.135,0.353,0.109
				c0.126-0.027,0.23-0.093,0.304-0.197c0.133-0.186,0.357-0.693,0.672-1.509c0.088,0.398,0.132,0.597,0.22,0.995
				c-0.49,1.975-1.149,3.051-1.959,3.225c-0.39,0.084-0.743-0.053-1.06-0.408C284.724,59.744,284.245,58.106,284.245,58.106z
				 M284,56.948c-0.526-2.488-0.79-3.732-1.316-6.221c-1.02,0.96-1.676,1.625-1.958,1.989c-0.504,0.65-0.839,1.288-0.989,1.913
				c-0.151,0.625-0.159,1.277-0.023,1.956c0.172,0.857,0.485,1.535,0.939,2.031c0.455,0.497,0.905,0.699,1.348,0.608
				C282.604,59.101,283.274,58.343,284,56.948z"/>
			<path style="fill:#18802D;" d="M289.26,45.315c0.512-2.425,1.339-3.773,2.507-4.054c1.069-0.257,2.173,0.226,3.325,1.448
				c1.152,1.223,2.043,3.061,2.662,5.523c0.722,2.875,0.674,5.349-0.166,7.42c-0.722,1.779-1.769,2.832-3.124,3.153
				c-0.634,0.15-1.319,0.13-2.052-0.063c-0.733-0.191-1.518-0.554-2.353-1.088c-1.526-6.746-2.289-10.118-3.816-16.864
				c-0.418-1.848-0.703-2.979-0.856-3.393c-0.153-0.414-0.306-0.684-0.461-0.811s-0.322-0.171-0.501-0.131
				c-0.209,0.047-0.45,0.201-0.722,0.46c-0.118-0.235-0.177-0.353-0.295-0.588c1.057-1.07,1.582-1.607,2.625-2.685
				c0.201-0.046,0.301-0.069,0.502-0.116C287.624,38.243,288.169,40.6,289.26,45.315z M289.523,46.451
				c0.9,3.891,1.35,5.836,2.251,9.728c0.538,0.499,1.059,0.849,1.56,1.05c0.501,0.2,0.977,0.247,1.427,0.139
				c0.719-0.171,1.247-0.922,1.577-2.253c0.329-1.33,0.213-3.121-0.341-5.375c-0.51-2.076-1.206-3.597-2.078-4.566
				c-0.873-0.969-1.687-1.363-2.451-1.181c-0.405,0.096-0.771,0.355-1.101,0.766C290.117,45.067,289.835,45.631,289.523,46.451z"/>
			<path style="fill:#18802D;" d="M300.867,38.96c1.376,5.184,2.065,7.776,3.441,12.96c0.268,1.01,0.495,1.669,0.682,1.977
				c0.187,0.309,0.398,0.52,0.635,0.632c0.236,0.113,0.61,0.101,1.121-0.037c0.068,0.253,0.103,0.38,0.171,0.634
				c-2.101,0.567-3.152,0.843-5.259,1.382c-0.065-0.254-0.098-0.381-0.163-0.636c0.527-0.135,0.862-0.302,1.004-0.502
				c0.141-0.2,0.219-0.49,0.234-0.87c0.014-0.381-0.109-1.071-0.369-2.07c-0.648-2.49-0.972-3.735-1.62-6.224
				c-0.456-1.751-0.784-2.88-0.988-3.376c-0.149-0.361-0.303-0.602-0.456-0.72c-0.152-0.117-0.327-0.15-0.525-0.099
				c-0.213,0.055-0.449,0.209-0.708,0.464c-0.129-0.238-0.194-0.357-0.323-0.595c1.057-1.112,1.582-1.67,2.623-2.789
				C300.568,39.04,300.668,39.013,300.867,38.96z M297.708,30.768c0.31-0.081,0.62,0.022,0.93,0.311s0.53,0.679,0.662,1.172
				c0.131,0.493,0.134,0.945,0.008,1.355s-0.346,0.657-0.659,0.74c-0.313,0.082-0.628-0.024-0.943-0.318
				c-0.315-0.294-0.537-0.689-0.665-1.182c-0.128-0.494-0.128-0.942,0-1.346C297.168,31.095,297.391,30.851,297.708,30.768z"/>
			<path style="fill:#18802D;" d="M310.408,36.299c0.638,2.182,0.957,3.274,1.596,5.456c-0.151,0.044-0.226,0.066-0.377,0.11
				c-0.789-1.63-1.496-2.689-2.124-3.179c-0.628-0.489-1.286-0.634-1.98-0.438c-0.528,0.15-0.893,0.486-1.098,1.009
				c-0.204,0.524-0.233,1.049-0.087,1.576c0.182,0.655,0.469,1.183,0.835,1.583c0.371,0.405,0.993,0.788,1.872,1.12
				c0.811,0.308,1.217,0.461,2.032,0.764c1.888,0.708,3.12,1.995,3.676,3.883c0.429,1.457,0.408,2.739-0.07,3.846
				c-0.478,1.108-1.181,1.794-2.1,2.056c-0.66,0.188-1.481,0.239-2.41,0.112c-0.288-0.039-0.52-0.045-0.685,0.001
				c-0.181,0.05-0.28,0.242-0.298,0.574c-0.156,0.043-0.234,0.064-0.389,0.107c-0.632-2.298-0.947-3.447-1.579-5.745
				c0.154-0.042,0.23-0.063,0.384-0.106c0.669,1.58,1.428,2.7,2.278,3.358c0.85,0.658,1.661,0.878,2.429,0.659
				c0.541-0.154,0.913-0.517,1.117-1.088s0.208-1.189,0.015-1.854c-0.233-0.805-0.618-1.426-1.152-1.867s-1.482-0.919-2.837-1.445
				c-1.356-0.527-2.296-1.089-2.829-1.67c-0.526-0.572-0.933-1.368-1.212-2.387c-0.364-1.324-0.373-2.511-0.033-3.563
				c0.339-1.052,0.968-1.707,1.893-1.969c0.406-0.115,0.938-0.119,1.593-0.019c0.433,0.066,0.715,0.078,0.843,0.041
				c0.12-0.035,0.202-0.103,0.246-0.205s0.071-0.305,0.079-0.611C310.185,36.364,310.26,36.343,310.408,36.299z"/>
			<path style="fill:#229CB1;" d="M329.826,39.497c-2.392,0.815-3.591,1.213-5.992,1.99c0.059,1.62,0.086,2.43,0.136,4.052
				c0.031,0.998,0.117,1.723,0.261,2.174c0.115,0.359,0.329,0.638,0.645,0.836c0.316,0.198,0.868,0.216,1.656,0.05
				c0.083,0.256,0.125,0.385,0.208,0.641c-1.993,0.646-2.991,0.963-4.99,1.584c-0.08-0.257-0.12-0.386-0.2-0.644
				c0.608-0.38,0.964-0.742,1.072-1.079c0.217-0.678,0.304-1.949,0.241-3.802c-0.26-8.451-0.446-12.668-0.933-21.08
				c0.153-0.051,0.23-0.077,0.383-0.128c4.671,7.106,7.06,10.634,11.942,17.634c0.982,1.407,1.737,2.277,2.258,2.614
				s1.114,0.421,1.774,0.249c0.091,0.254,0.136,0.381,0.227,0.634c-2.477,0.887-3.719,1.32-6.207,2.167
				c-0.087-0.255-0.13-0.383-0.217-0.638c0.611-0.259,0.981-0.56,1.11-0.9c0.129-0.34,0.128-0.699-0.003-1.078
				c-0.174-0.505-0.604-1.249-1.284-2.236C331.076,41.324,330.658,40.715,329.826,39.497z M329.074,38.329
				c-2.329-3.426-3.482-5.146-5.761-8.596c0.211,4.138,0.303,6.209,0.46,10.357C325.897,39.4,326.957,39.048,329.074,38.329z"/>
			<path style="fill:#229CB1;" d="M334.138,19.242c3.084,8.301,4.626,12.451,7.71,20.752c0.364,0.98,0.652,1.611,0.867,1.894
				c0.214,0.283,0.452,0.47,0.713,0.561c0.261,0.09,0.664,0.033,1.209-0.172c0.093,0.246,0.139,0.368,0.231,0.614
				c-2.07,0.78-3.107,1.162-5.184,1.913c-0.089-0.247-0.134-0.37-0.223-0.617c0.485-0.175,0.789-0.369,0.912-0.582
				c0.123-0.213,0.172-0.509,0.146-0.887c-0.025-0.38-0.216-1.054-0.57-2.023c-2.084-5.694-3.125-8.541-5.209-14.236
				c-0.647-1.768-1.071-2.846-1.269-3.231c-0.199-0.387-0.382-0.633-0.549-0.74c-0.166-0.108-0.337-0.13-0.511-0.066
				c-0.189,0.069-0.396,0.248-0.621,0.536c-0.161-0.213-0.241-0.32-0.402-0.533c0.913-1.198,1.366-1.798,2.264-3.001
				C333.846,19.35,333.943,19.314,334.138,19.242z"/>
			<path style="fill:#229CB1;" d="M346.703,35.673c-0.113-0.206-1.551-0.679-2.209-1.383c-0.659-0.704-1.179-1.561-1.565-2.571
				c-0.59-1.543-0.716-3.016-0.389-4.419c0.328-1.403,1.073-2.331,2.246-2.794c0.96-0.38,1.934-0.351,2.929,0.087
				c0.854-0.344,1.281-0.518,2.133-0.867c0.314-0.129,0.503-0.19,0.567-0.183c0.062,0.007,0.118,0.044,0.168,0.098
				c0.077,0.083,0.182,0.254,0.288,0.512c0.121,0.293,0.19,0.506,0.195,0.629c0.003,0.063-0.019,0.126-0.06,0.182
				s-0.22,0.15-0.536,0.279c-0.525,0.215-0.787,0.322-1.313,0.535c0.74,0.643,1.369,1.594,1.883,2.854
				c0.587,1.44,0.725,2.82,0.404,4.142c-0.321,1.321-1.107,2.233-2.353,2.725c-0.513,0.203-1.527,0.148-1.707,0.279
				c-0.184,0.134-0.243,1.023-0.235,1.392c0.008,0.368,0.056,0.666,0.143,0.892c0.074,0.192,0.209,0.356,0.405,0.487
				c0.196,0.133,0.492,0.168,0.888,0.104c0.231-0.038,0.781-0.204,1.643-0.508c1.586-0.559,2.635-0.891,3.135-0.98
				c0.762-0.134,1.486,0.019,2.166,0.476c0.679,0.456,1.21,1.144,1.589,2.065c0.523,1.27,0.607,2.628,0.244,4.074
				c-0.536,2.133-1.79,3.598-3.747,4.369c-1.505,0.593-2.981,0.597-4.385,0.002c-0.799-0.338-1.317-0.824-1.55-1.437
				c-0.104-0.273-0.165-0.561-0.183-0.866c-0.028-0.47,0.028-1.163,0.142-2.062c0.016-0.122,0.679-1.909,0.469-2.289
				c-0.096-0.173-0.936-0.404-1.207-0.619c-0.271-0.214-0.473-0.497-0.608-0.849c-0.152-0.397-0.221-0.903-0.209-1.52
				C346.094,37.895,346.841,35.925,346.703,35.673z M348.791,41.39c-0.223,0.218-0.201,1.361-0.193,1.93
				c0.008,0.571,0.091,1.065,0.253,1.485c0.209,0.544,0.617,0.934,1.224,1.168c1.046,0.403,2.307,0.316,3.772-0.266
				c1.395-0.554,2.279-1.328,2.648-2.309c0.369-0.983,0.385-1.879,0.054-2.688c-0.239-0.585-0.606-0.923-1.094-1.01
				c-0.496-0.088-1.344,0.089-2.539,0.514C351.17,40.834,349.082,41.105,348.791,41.39z M344.919,25.393
				c-0.543,0.214-0.868,0.726-0.976,1.538s0.105,1.909,0.641,3.29c0.695,1.789,1.488,3.08,2.384,3.862
				c0.681,0.594,1.327,0.771,1.929,0.533c0.572-0.226,0.915-0.735,1.026-1.525c0.111-0.79-0.112-1.872-0.664-3.248
				c-0.719-1.792-1.539-3.095-2.451-3.905C346.137,25.343,345.507,25.162,344.919,25.393z"/>
			<path style="fill:#229CB1;" d="M356.119,19.823c1.51-0.651,3.105-0.304,4.796,1.044c1.444,1.15,2.607,2.695,3.474,4.635
				c0.61,1.364,1.009,2.842,1.191,4.437c0.181,1.594,0.038,2.921-0.43,3.975c-0.468,1.054-1.187,1.792-2.15,2.207
				c-1.57,0.677-3.214,0.282-4.91-1.178c-1.429-1.231-2.543-2.821-3.35-4.762c-0.587-1.413-0.938-2.915-1.061-4.502
				c-0.123-1.588,0.047-2.871,0.508-3.851C354.65,20.847,355.292,20.18,356.119,19.823z M356.25,21.056
				c-0.386,0.166-0.699,0.507-0.939,1.026c-0.241,0.519-0.294,1.27-0.162,2.257c0.132,0.986,0.489,2.174,1.075,3.561
				c0.945,2.238,2.056,4.044,3.343,5.411c1.286,1.366,2.427,1.837,3.41,1.412c0.733-0.317,1.143-1.027,1.227-2.125
				c0.084-1.098-0.354-2.73-1.309-4.897c-1.195-2.712-2.529-4.675-3.969-5.898C357.94,20.966,357.051,20.712,356.25,21.056z"/>
			<path style="fill:#229CB1;" d="M373.867,16.728c0.043,0.074,2.199-0.017,3.058,0.453c1.195,0.654,2.156,1.705,2.874,3.152
				c0.545,1.1,0.833,2.269,0.858,3.509c0.025,1.241-0.264,2.297-0.868,3.165c-0.603,0.868-1.761,1.717-3.474,2.529
				c-2.873,1.363-4.314,2.029-7.206,3.334c-0.111-0.246-0.166-0.369-0.277-0.614c0.23-0.104,0.345-0.156,0.575-0.26
				c0.639-0.289,0.966-0.803,0.965-1.521c-0.001-0.461-0.296-1.327-0.872-2.586c-2.658-5.804-3.987-8.706-6.645-14.511
				c-0.637-1.391-1.142-2.223-1.515-2.492c-0.497-0.36-1.02-0.415-1.566-0.168c-0.217,0.098-0.326,0.147-0.543,0.245
				c-0.111-0.246-0.166-0.369-0.277-0.614c2.49-1.123,3.731-1.696,6.205-2.865c1.154-0.545,2.141-0.856,2.962-0.93
				c1.242-0.112,2.386,0.19,3.433,0.914c1.046,0.725,1.892,1.732,2.532,3.028c0.548,1.111,0.818,2.215,0.804,3.311
				C374.876,14.903,373.867,16.728,373.867,16.728z M367.752,18.542c0.304-0.048,0.638-0.132,1-0.256
				c0.362-0.122,0.75-0.281,1.163-0.476c1.058-0.499,1.769-1.052,2.134-1.651c0.365-0.6,0.515-1.323,0.451-2.17
				c-0.064-0.846-0.301-1.689-0.71-2.531c-0.631-1.3-1.515-2.24-2.643-2.829c-1.128-0.589-2.344-0.571-3.657,0.049
				c-0.706,0.333-1.285,0.752-1.739,1.257C365.351,13.377,366.151,15.099,367.752,18.542z M372.73,29.248
				c1.004-0.106,1.93-0.359,2.772-0.758c1.35-0.639,2.165-1.58,2.438-2.812c0.273-1.232,0.086-2.503-0.552-3.812
				c-0.42-0.863-0.982-1.616-1.683-2.261c-0.701-0.645-1.514-1.028-2.439-1.149c-0.925-0.121-1.905,0.064-2.944,0.555
				c-0.451,0.212-0.831,0.404-1.141,0.576c-0.31,0.172-0.55,0.331-0.722,0.478C370.167,23.736,371.022,25.573,372.73,29.248z"/>
			<path style="fill:#229CB1;" d="M380.414,8.348c2.453,4.77,3.68,7.155,6.133,11.924c0.478,0.929,0.841,1.524,1.092,1.784
				c0.25,0.261,0.505,0.42,0.763,0.478c0.259,0.058,0.627-0.037,1.107-0.286c0.121,0.233,0.182,0.349,0.303,0.582
				c-1.97,1.024-2.958,1.529-4.938,2.525c-0.118-0.235-0.177-0.352-0.295-0.586c0.496-0.249,0.793-0.487,0.892-0.715
				c0.099-0.227,0.116-0.528,0.05-0.904c-0.066-0.376-0.332-1.024-0.8-1.944c-1.165-2.294-1.748-3.44-2.913-5.734
				c-0.82-1.613-1.382-2.646-1.689-3.085c-0.224-0.32-0.427-0.522-0.604-0.604c-0.175-0.081-0.356-0.075-0.542,0.019
				c-0.2,0.101-0.402,0.305-0.606,0.612c-0.178-0.204-0.267-0.306-0.445-0.511c0.817-1.324,1.222-1.987,2.024-3.315
				C380.133,8.492,380.227,8.444,380.414,8.348z M375.559,1.03c0.291-0.149,0.621-0.116,0.989,0.098
				c0.369,0.214,0.669,0.546,0.903,1c0.233,0.453,0.331,0.895,0.292,1.325s-0.207,0.721-0.501,0.871s-0.629,0.116-1.004-0.102
				c-0.375-0.218-0.678-0.555-0.908-1.01c-0.231-0.456-0.325-0.894-0.282-1.318S375.26,1.182,375.559,1.03z"/>
			<path style="fill:#229CB1;" d="M389.348,3.608c1.091,1.995,1.637,2.992,2.728,4.987c-0.141,0.077-0.211,0.116-0.352,0.193
				c-1.126-1.42-2.051-2.299-2.778-2.638c-0.727-0.338-1.412-0.333-2.061,0.015c-0.494,0.265-0.787,0.676-0.881,1.234
				c-0.094,0.559-0.013,1.079,0.243,1.563c0.318,0.601,0.714,1.054,1.162,1.364c0.454,0.314,1.153,0.55,2.097,0.678
				c0.871,0.12,1.307,0.178,2.181,0.293c2.027,0.27,3.521,1.254,4.469,2.979c0.732,1.331,0.979,2.592,0.734,3.784
				c-0.244,1.193-0.8,2.022-1.66,2.485c-0.617,0.332-1.423,0.566-2.374,0.649c-0.294,0.026-0.527,0.072-0.681,0.154
				c-0.17,0.09-0.228,0.299-0.177,0.629c-0.146,0.077-0.219,0.115-0.365,0.192c-1.109-2.11-1.663-3.164-2.772-5.274
				c0.144-0.076,0.216-0.114,0.36-0.189c0.996,1.398,1.985,2.325,2.967,2.78c0.983,0.454,1.836,0.488,2.554,0.102
				c0.506-0.272,0.801-0.711,0.884-1.316c0.083-0.605-0.041-1.211-0.372-1.819c-0.4-0.736-0.913-1.259-1.536-1.571
				c-0.623-0.312-1.667-0.568-3.125-0.78c-1.459-0.212-2.512-0.554-3.163-1.003c-0.642-0.443-1.214-1.131-1.705-2.067
				c-0.639-1.216-0.896-2.376-0.778-3.482c0.117-1.106,0.606-1.888,1.471-2.352c0.38-0.204,0.908-0.327,1.581-0.376
				c0.445-0.033,0.728-0.084,0.848-0.149c0.113-0.061,0.18-0.147,0.202-0.256c0.023-0.109,0.006-0.315-0.049-0.616
				C389.139,3.722,389.209,3.684,389.348,3.608z"/>
		</g>
	</g>
</g>
<g id="Layer_1">
</g>
</svg>
