<?xml version="1.0" encoding="iso-8859-1"?>
<!-- Generator: Adobe Illustrator 17.0.0, SVG Export Plug-In . SVG Version: 6.00 Build 0)  -->
<!DOCTYPE svg PUBLIC "-//W3C//DTD SVG 1.1//EN" "http://www.w3.org/Graphics/SVG/1.1/DTD/svg11.dtd">
<svg version="1.1" xmlns="http://www.w3.org/2000/svg" xmlns:xlink="http://www.w3.org/1999/xlink" x="0px" y="0px"
	 width="578.66px" height="611.792px" viewBox="0 0 578.66 611.792" style="enable-background:new 0 0 578.66 611.792;"
	 xml:space="preserve">
<g id="Layer_1_1_">
	<circle style="fill:#F5E92B;" cx="333.746" cy="42.955" r="38.174"/>
	<circle style="opacity:0.3;fill:none;stroke:#FA100D;stroke-miterlimit:10;" cx="333.746" cy="42.955" r="42.455"/>
	<g>
		<g>
			<g style="opacity:0.9;">
				<path style="fill:#1A9748;stroke:#265418;stroke-width:0.5;stroke-miterlimit:10;" d="M218.59,464.23l-10.133,3.317l-5.619,1.84
					l-37.74-30.109l-33.145-26.438c0,0,0,0-0.009,0l-0.009-0.009c-0.145-0.127-1.097-0.924-2.592-2.157
					c-0.199-0.172-0.408-0.344-0.625-0.526c-0.326-0.272-0.68-0.562-1.051-0.87c-0.363-0.308-0.752-0.625-1.151-0.961
					c-1.885-1.55-4.097-3.381-6.399-5.275c-0.662-0.544-1.332-1.088-1.994-1.631c-0.671-0.553-1.341-1.097-2.012-1.64
					c-3-2.438-5.918-4.786-8.239-6.607c-0.625-0.499-1.423-1.106-2.184-1.668c-0.381-0.281-0.743-0.553-1.079-0.816
					c-0.68-0.508-1.224-0.906-1.414-1.06c-0.027-0.018-0.054-0.045-0.063-0.054c-0.082-0.073-0.145-0.145-0.208-0.199
					c-0.009-0.009,0-0.009,0-0.009c-0.281-0.317-0.317-0.553-0.163-0.707c0.408-0.372,1.967-0.299,4.033,0
					c0.653,0.1,1.36,0.218,2.094,0.354c1.731,0.317,3.625,0.725,5.411,1.133c0.716,0.163,1.414,0.326,2.076,0.489
					c0.218,0.054,0.435,0.109,0.643,0.154c0.145,0.036,0.29,0.072,0.426,0.109c0.272,0.063,0.535,0.136,0.789,0.199
					c0.29,0.063,0.562,0.136,0.825,0.208c0.127,0.027,0.254,0.063,0.381,0.091c0.299,0.073,0.571,0.145,0.816,0.208
					c0.453,0.118,0.807,0.208,1.042,0.272c0.009,0,0.018,0.009,0.018,0.009c0.054,0.009,0.109,0.027,0.154,0.036
					c-0.009-0.009-0.027-0.009-0.045-0.018c-0.145-0.054-0.381-0.145-0.716-0.308c-0.091-0.036-0.181-0.091-0.29-0.145
					c-0.1-0.045-0.218-0.1-0.335-0.172c-0.245-0.136-0.508-0.29-0.816-0.471c-2.628-1.577-7.659-5.293-16.061-13.894
					c-0.381-0.39-0.77-0.789-1.178-1.205c-0.1-0.1-0.199-0.208-0.29-0.308c-0.254-0.263-0.508-0.526-0.761-0.798
					c-0.263-0.272-0.517-0.544-0.779-0.825c-0.562-0.58-1.124-1.187-1.704-1.813c-0.236-0.263-0.48-0.535-0.734-0.807l-0.082-0.082
					c-0.136-0.136-0.29-0.272-0.453-0.408c-0.063-0.054-0.127-0.109-0.19-0.154c-0.29-0.254-0.508-0.462-0.408-0.58v-0.009
					c0.018-0.027,0.063-0.045,0.118-0.063c0.218-0.063,0.634-0.063,1.06-0.063c0.109,0,0.209,0,0.317,0.009
					c0.236,0,0.462,0.009,0.643,0c0.997-0.045,2.447,0.109,4.042,0.363c1.242,0.19,2.574,0.435,3.852,0.707
					c0.363,0.082,0.725,0.154,1.079,0.227c0.344,0.073,0.689,0.145,1.015,0.218c0.027,0.009,0.054,0.018,0.082,0.027
					c0.317,0.063,0.625,0.136,0.915,0.208c0.943,0.208,1.749,0.408,2.347,0.553c0.163,0.036,0.317,0.082,0.453,0.109
					c0.109,0.027,0.199,0.045,0.281,0.072c0.254,0.063,0.39,0.1,0.39,0.1s-5.275-2.511-11.973-10.251
					c-0.245-0.272-0.48-0.553-0.716-0.834c-0.553-0.671-1.124-1.369-1.695-2.112c-0.027-0.027-0.045-0.045-0.054-0.063
					c-0.589-0.77-1.187-1.577-1.795-2.42c-0.009-0.009-0.009-0.018-0.018-0.027c-0.208-0.299-0.417-0.598-0.625-0.897
					c-0.426-0.607-0.852-1.242-1.269-1.894c-0.209-0.317-0.417-0.653-0.634-0.988c-0.218-0.335-0.426-0.671-0.634-1.024
					c-0.208-0.344-0.426-0.689-0.634-1.051c-0.426-0.707-0.852-1.45-1.269-2.202c-0.218-0.381-0.426-0.761-0.634-1.151
					c-0.218-0.39-0.426-0.779-0.634-1.187c-0.208-0.399-0.417-0.807-0.625-1.224c-0.208-0.408-0.417-0.834-0.625-1.251
					c-0.218-0.426-0.426-0.852-0.625-1.296c-0.208-0.435-0.408-0.879-0.616-1.323c-0.208-0.444-0.417-0.897-0.616-1.36
					c-0.399-0.924-0.807-1.867-1.205-2.837c-0.598-1.45-1.178-2.955-1.758-4.523c-0.027-0.063-0.054-0.127-0.073-0.19
					c-0.544-1.505-1.079-3.073-1.604-4.686c-0.227-0.707-0.571-1.405-0.888-2.012c0,0-0.009,0-0.009-0.009
					c-0.172-0.344-0.344-0.662-0.471-0.924c0,0-0.009,0-0.009-0.009c-0.1-0.199-0.172-0.372-0.227-0.508
					c-0.054-0.154-0.063-0.263-0.027-0.326c0.018-0.027,0.036-0.036,0.063-0.045c0.272-0.073,1.178,0.444,2.139,1.115
					c0.19,0.136,0.39,0.281,0.58,0.426c0.499,0.372,0.97,0.761,1.332,1.106c0.716,0.671,1.523,1.505,2.393,2.465
					c0.218,0.245,0.444,0.489,0.671,0.743c1.804,2.039,3.825,4.505,5.783,6.952c0.045,0.045,0.072,0.082,0.1,0.118
					c1.369,1.731,2.701,3.453,3.906,5.012c1.088,1.432,2.076,2.737,2.864,3.789c0.091,0.118,0.181,0.236,0.263,0.344
					c0.118,0.163,0.227,0.317,0.344,0.462c0.027,0.027,0.045,0.063,0.063,0.091c0.063,0.091,0.127,0.172,0.19,0.254
					c0.426,0.58,0.752,1.015,0.943,1.269c0.091,0.136,0.163,0.227,0.19,0.263c-0.045-0.063-0.172-0.281-0.39-0.634
					c-0.018-0.018-0.027-0.036-0.027-0.054c-0.045-0.082-0.1-0.163-0.154-0.254c-0.272-0.453-0.634-1.069-1.06-1.804
					c-1.668-2.855-4.414-7.659-7.278-13.124c-1.224-2.347-2.474-4.813-3.662-7.296c-0.471-0.997-0.943-1.994-1.405-2.991
					c-0.227-0.498-0.453-0.988-0.671-1.486c-0.435-0.988-0.861-1.976-1.269-2.946c-0.408-0.97-0.798-1.931-1.151-2.873
					c-0.544-1.405-1.024-2.773-1.432-4.079c-0.145-0.435-0.272-0.87-0.39-1.287c-0.163-0.58-0.326-1.242-0.489-1.94
					c-0.29-1.287-0.553-2.701-0.734-3.988c-0.036-0.254-0.072-0.489-0.1-0.725c-0.027-0.245-0.054-0.48-0.073-0.716
					c-0.072-0.752-0.1-1.396-0.063-1.867c0-0.036,0.009-0.054,0.018-0.082c0.009-0.018,0.018-0.036,0.027-0.045
					s0.018-0.018,0.036-0.027c0.145-0.063,0.498,0.199,0.979,0.653c0.054,0.045,0.1,0.1,0.163,0.163l0.372,0.372
					c0.39,0.399,0.834,0.87,1.296,1.369c0.236,0.254,0.48,0.517,0.734,0.779c0.091,0.091,0.172,0.181,0.254,0.272
					c0.344,0.353,0.689,0.725,1.051,1.079c0.181,0.181,0.353,0.353,0.535,0.535c0.091,0.091,0.181,0.181,0.272,0.263
					c0.091,0.082,0.181,0.163,0.263,0.254c0.272,0.254,0.544,0.508,0.807,0.734c0.399,0.344,0.789,0.689,1.178,1.033
					c0.58,0.517,1.142,1.033,1.677,1.523c1.858,1.704,3.281,3.082,3.408,3.199c0-0.009-0.009-0.018-0.018-0.036
					c-0.036-0.063-0.109-0.19-0.208-0.372c-0.054-0.091-0.109-0.199-0.181-0.308c-0.807-1.405-2.701-4.704-4.84-8.764
					c-0.426-0.816-0.87-1.668-1.305-2.538c-0.444-0.861-0.888-1.749-1.341-2.647c0,0,0.009-0.009,0-0.009
					c-0.29-0.598-0.589-1.205-0.879-1.813c-0.29-0.607-0.58-1.214-0.861-1.822c-0.571-1.215-1.106-2.429-1.613-3.616
					c-0.245-0.598-0.489-1.187-0.716-1.767c-0.118-0.299-0.236-0.607-0.353-0.897c-0.381-0.997-0.716-1.958-1.006-2.873
					c-0.326-1.015-0.589-1.976-0.77-2.855c-0.194-0.916-0.509-3.65-0.52-4.881c-0.004-0.282,0.007-0.482,0.04-0.558
					c0-0.045,0.018-0.063,0.045-0.054c0.118,0.054,0.254,0.145,0.408,0.254c0.562,0.39,1.405,1.097,2.338,1.931
					c0.163,0.154,0.335,0.308,0.508,0.471c0.526,0.48,1.079,0.997,1.613,1.505c0.544,0.508,1.069,1.024,1.568,1.505
					c0,0,0,0.009,0.009,0.009c0.335,0.317,0.644,0.625,0.934,0.906l0.009,0.009c0.172,0.172,0.344,0.335,0.508,0.508
					c0.344,0.335,0.689,0.68,1.006,1.015c0.435,0.444,0.843,0.87,1.233,1.278c0.544,0.571,1.024,1.097,1.423,1.532
					c0.091,0.109,0.19,0.208,0.281,0.308c0.181,0.199,0.335,0.372,0.462,0.508c0.118,0.136,0.208,0.245,0.272,0.317
					c0.036,0.045,0.063,0.072,0.091,0.091c0,0.009,0.009,0.009,0.009,0.009c0,0.009,0,0.009,0,0.009
					c0.009,0.009,0.018,0.018,0.018,0.018s-0.027-0.082-0.082-0.245c-0.009-0.018-0.018-0.027-0.018-0.045
					c-0.227-0.698-0.861-2.665-1.749-5.32c-0.1-0.29-0.19-0.589-0.29-0.888c-0.181-0.517-0.353-1.06-0.544-1.613
					c-0.091-0.281-0.19-0.562-0.281-0.852c-0.48-1.432-1.006-2.973-1.541-4.568c-1.079-3.181-2.248-6.562-3.363-9.725v-0.009
					c-0.707-1.994-1.749-4.305-2.701-6.372c-0.526-1.142-1.024-2.212-1.405-3.109c0-0.009-0.009-0.009-0.009-0.009
					c-0.163-0.353-0.299-0.689-0.417-0.988c-0.118-0.29-0.118-0.462-0.027-0.526c0.082-0.091,0.281-0.063,0.553,0.054
					c0.906,0.381,2.692,1.704,4.532,3.109c0.009,0,0.018,0,0.018,0.009c0.335,0.254,0.662,0.508,0.988,0.761
					c0.172,0.127,0.344,0.263,0.517,0.39c0.77,0.589,1.568,1.224,2.356,1.867c3.326,2.683,6.489,5.456,6.698,5.638
					c-0.018-0.018-0.054-0.063-0.109-0.136c0,0-0.009,0-0.018-0.018c-0.625-0.77-3.19-4.115-4.432-8.728
					c-2.438-8.991-3.852-22.541-4.931-29.302c-0.39-2.384-1.024-4.323-0.662-4.568c0.054-0.036,0.145-0.018,0.254,0.036h0.009
					c0.372,0.154,0.997,0.689,1.405,1.296c0.816,1.242,1.577,2.402,2.266,3.498c7.097,11.184,7.65,14.855,7.65,15.725l0.073-0.68
					l0.109-3.489c1.523,2.9,1.894,4.115,1.894,4.477l0.073-0.789l0.453-47.438l6.616-43.904l0.063-0.381
					c0,0,1.224-10.631,1.224-12.48c0.009-2.674,1.822,10.559,1.822,10.559l4.142,35.447l8.692,61.45l4.006,28.305
					c0,0,0.97-6.082,2.021-11.057c1.006-4.767,2.094-8.529,2.474-4.958c0.154,1.459,0.671,4.459,1.369,8.157
					c0.562,2.973,1.242,6.39,1.931,9.834c2.003,9.934,4.16,20.048,4.16,20.048s1.686-4.903,3.208-8.909
					c1.432-3.761,2.719-6.734,2.329-4.097c-0.263,1.713-0.245,3.798-0.027,6.072c0.426,4.613,1.631,10.024,2.918,14.837
					c1.903,7.097,3.979,12.897,3.979,12.897s2.556-6.915,4.713-11.302c1.079-2.202,2.057-3.77,2.565-3.517
					c0.127,0.063,0.816,3.381,1.015,4.912c0.562,4.26,0.807,8.964,0.906,13.187c0.163,7.142-0.118,12.925-0.118,12.925
					s4.912-9.245,7.994-13.795c1.215-1.795,2.148-2.855,2.384-2.32c0.082,0.181-0.236,2.556-0.335,3.372
					c-0.598,4.55-1.079,10.722-1.441,16.496c-0.535,8.719-0.807,16.541-0.807,16.541s1.332-3.027,2.937-6.317
					c1.169-2.393,2.483-4.921,3.526-6.517c0.725-1.097,1.314-1.758,1.659-1.631c0.199,0.082,0.281,2.239,0.29,2.783
					c0,3.127,0.145,6.426,0.363,9.553c0.535,8.039,1.495,14.955,1.495,14.955s8.828-17.23,8.039-11.656
					c-1.169,8.275,1.722,18.009,1.722,18.009l15.462,45.399l12.462,36.589L218.59,464.23z"/>
				<path style="fill:#167D2E;stroke:#265418;stroke-width:0.5;stroke-miterlimit:10;" d="M211.593,466.514l-3.136,1.033
					l-5.61,1.849l-0.009-0.009l-37.74-30.109l-33.145-26.438c0,0,0,0-0.009,0l-0.009-0.009c-0.145-0.127-1.097-0.924-2.592-2.157
					c-0.199-0.172-0.408-0.344-0.625-0.526c-0.326-0.272-0.68-0.562-1.051-0.87c-0.363-0.308-0.752-0.625-1.151-0.961
					c-1.885-1.55-4.097-3.381-6.399-5.275c-0.662-0.544-1.332-1.088-1.994-1.631c-0.671-0.553-1.341-1.097-2.012-1.64
					c-3-2.438-5.918-4.786-8.239-6.607c-0.625-0.499-1.423-1.106-2.184-1.668c-0.381-0.29-0.743-0.571-1.079-0.816
					c-0.68-0.508-1.224-0.906-1.414-1.06c-0.027-0.018-0.054-0.036-0.063-0.045c-0.082-0.073-0.154-0.145-0.208-0.208
					c-0.009-0.009,0-0.009,0-0.009c-0.299-0.326-0.326-0.553-0.163-0.707c0.408-0.372,1.967-0.299,4.033,0
					c0.653,0.091,1.35,0.209,2.085,0.335c1.731,0.317,3.634,0.734,5.42,1.151c0.716,0.163,1.414,0.326,2.076,0.489
					c0.218,0.054,0.435,0.109,0.643,0.154c0.145,0.036,0.29,0.072,0.426,0.109c0.272,0.063,0.535,0.127,0.789,0.199
					c0.29,0.063,0.562,0.136,0.825,0.208c0.127,0.027,0.254,0.063,0.381,0.091c0.299,0.073,0.571,0.145,0.816,0.208
					c0.453,0.118,0.807,0.208,1.042,0.272c0.009,0,0.018,0.009,0.018,0.009c0.045,0,0.082,0.009,0.109,0.018
					c-0.145-0.054-0.381-0.145-0.716-0.308c-0.091-0.036-0.181-0.091-0.29-0.145c-0.1-0.045-0.218-0.1-0.335-0.172
					c-0.245-0.127-0.517-0.281-0.816-0.471c-2.628-1.577-7.659-5.293-16.061-13.894c-0.39-0.39-0.779-0.798-1.178-1.205
					c-0.1-0.1-0.199-0.208-0.29-0.308c-0.254-0.263-0.508-0.526-0.761-0.798c-0.263-0.272-0.517-0.544-0.779-0.825
					c-0.562-0.58-1.124-1.187-1.704-1.813c-0.245-0.263-0.489-0.535-0.743-0.807c-0.027-0.027-0.045-0.054-0.072-0.082
					c-0.136-0.136-0.29-0.272-0.453-0.408c-0.063-0.054-0.127-0.109-0.19-0.154c-0.29-0.254-0.508-0.462-0.408-0.58
					c0.027-0.027,0.063-0.054,0.118-0.073c0.218-0.073,0.634-0.082,1.06-0.063c0.109,0,0.209,0,0.317,0.009
					c0.236,0,0.462,0.009,0.643,0.009c1.006-0.045,2.447,0.109,4.042,0.353c1.242,0.199,2.574,0.444,3.852,0.707
					c0.363,0.082,0.725,0.154,1.079,0.227c0.344,0.082,0.68,0.154,1.015,0.218c0.027,0.009,0.054,0.018,0.082,0.027
					c0.317,0.073,0.625,0.136,0.915,0.208c0.943,0.208,1.749,0.408,2.347,0.553c0.172,0.036,0.317,0.073,0.453,0.109
					c0.109,0.027,0.199,0.045,0.281,0.072c0.127,0.027,0.218,0.045,0.281,0.063c-0.716-0.362-5.692-3.054-11.864-10.215
					c-0.245-0.272-0.48-0.553-0.716-0.834c-0.562-0.671-1.133-1.369-1.695-2.112c-0.027-0.027-0.045-0.045-0.054-0.063
					c-0.598-0.77-1.196-1.577-1.795-2.42c-0.009-0.009-0.009-0.018-0.018-0.027c-0.208-0.299-0.417-0.598-0.625-0.897
					c-0.426-0.607-0.852-1.242-1.269-1.894c-0.209-0.317-0.417-0.653-0.634-0.988c-0.218-0.335-0.426-0.671-0.634-1.024
					c-0.208-0.344-0.426-0.689-0.634-1.051c-0.435-0.716-0.852-1.441-1.269-2.202c-0.218-0.381-0.426-0.761-0.634-1.151
					c-0.218-0.39-0.426-0.779-0.634-1.187c-0.208-0.399-0.417-0.807-0.625-1.224c-0.208-0.408-0.417-0.834-0.625-1.251
					c-0.218-0.426-0.426-0.852-0.625-1.296c-0.208-0.435-0.408-0.879-0.616-1.323c-0.208-0.444-0.417-0.897-0.616-1.36
					c-0.408-0.915-0.807-1.867-1.205-2.837c-0.598-1.45-1.187-2.955-1.758-4.523c-0.027-0.063-0.054-0.127-0.073-0.19
					c-0.553-1.505-1.088-3.063-1.613-4.677c-0.227-0.707-0.571-1.405-0.879-2.021c0,0-0.009,0-0.009-0.009
					c-0.181-0.344-0.344-0.653-0.471-0.924c0,0-0.009,0-0.009-0.009c-0.1-0.199-0.181-0.362-0.227-0.508
					c-0.063-0.154-0.073-0.272-0.027-0.326c0.018-0.027,0.036-0.036,0.063-0.045c0.272-0.073,1.178,0.444,2.139,1.115
					c0.19,0.136,0.39,0.281,0.58,0.426c0.499,0.372,0.97,0.761,1.332,1.106c0.716,0.671,1.523,1.505,2.393,2.465
					c0.218,0.245,0.444,0.489,0.671,0.743c1.813,2.03,3.843,4.495,5.783,6.952c0.045,0.045,0.072,0.082,0.1,0.118
					c1.369,1.722,2.71,3.444,3.906,5.012c1.097,1.432,2.076,2.728,2.864,3.789c0.091,0.118,0.181,0.236,0.263,0.344
					c0.118,0.163,0.227,0.317,0.344,0.462c0.027,0.027,0.045,0.063,0.063,0.091c0.063,0.091,0.127,0.172,0.19,0.254
					c0.426,0.58,0.752,1.015,0.943,1.269c0.027,0.036,0.054,0.072,0.072,0.1c-0.063-0.109-0.154-0.272-0.272-0.471
					c-0.018-0.018-0.027-0.036-0.027-0.054c-0.045-0.082-0.1-0.163-0.154-0.254c-0.272-0.453-0.634-1.069-1.06-1.804
					c-1.659-2.864-4.405-7.677-7.26-13.133c-1.233-2.338-2.483-4.804-3.68-7.287c-0.471-0.997-0.943-1.994-1.405-2.991
					c-0.227-0.498-0.453-0.988-0.671-1.486c-0.435-0.988-0.861-1.976-1.269-2.946c-0.408-0.97-0.789-1.931-1.151-2.873
					c-0.535-1.405-1.024-2.773-1.432-4.079c-0.136-0.435-0.263-0.87-0.381-1.287c-0.163-0.58-0.335-1.242-0.499-1.94
					c-0.29-1.287-0.553-2.701-0.734-3.988c-0.036-0.254-0.072-0.489-0.1-0.725c-0.027-0.245-0.054-0.48-0.073-0.716
					c-0.072-0.752-0.091-1.405-0.054-1.876c0-0.027,0.009-0.054,0.009-0.073c0.009-0.018,0.018-0.036,0.027-0.045
					s0.018-0.018,0.036-0.027c0.136-0.082,0.48,0.181,0.979,0.653c0.054,0.045,0.1,0.1,0.163,0.163l0.181,0.181
					c0.063,0.054,0.127,0.127,0.19,0.19c0.39,0.399,0.834,0.87,1.296,1.369c0.245,0.254,0.489,0.517,0.734,0.779
					c0.091,0.091,0.172,0.181,0.254,0.272c0.353,0.363,0.698,0.716,1.051,1.079c0.181,0.181,0.353,0.353,0.535,0.535
					c0.091,0.082,0.181,0.172,0.272,0.263c0.091,0.082,0.181,0.163,0.263,0.254c0.272,0.254,0.544,0.498,0.807,0.725
					c0.399,0.344,0.789,0.689,1.178,1.042c0.58,0.517,1.142,1.033,1.677,1.523c1.767,1.622,3.154,2.937,3.39,3.163l0.027,0.027
					c-0.018-0.045-0.1-0.181-0.236-0.399c-0.054-0.091-0.109-0.199-0.181-0.308c-0.807-1.405-2.701-4.704-4.84-8.764
					c-0.426-0.816-0.87-1.668-1.305-2.538c-0.444-0.861-0.888-1.749-1.341-2.647c0,0,0.009-0.009,0-0.009
					c-0.29-0.598-0.589-1.205-0.879-1.813c-0.29-0.607-0.58-1.214-0.861-1.822c-0.562-1.215-1.106-2.429-1.613-3.616
					c-0.254-0.589-0.489-1.178-0.725-1.758c-0.118-0.308-0.236-0.607-0.344-0.906c-0.381-0.997-0.716-1.958-1.006-2.873
					c-0.326-1.015-0.58-1.976-0.761-2.855c-0.245-1.133-0.662-5.039-0.489-5.438c0.018-0.036,0.036-0.045,0.054-0.036
					c0.109,0.054,0.245,0.136,0.399,0.236c0.562,0.39,1.405,1.097,2.338,1.931c0.163,0.154,0.335,0.317,0.508,0.471
					c0.526,0.48,1.079,0.997,1.613,1.505c0.535,0.517,1.069,1.024,1.568,1.505c0,0,0,0.009,0.009,0.009
					c0.326,0.317,0.644,0.625,0.934,0.906l0.009,0.009c0.172,0.172,0.344,0.335,0.508,0.508c0.344,0.335,0.689,0.68,1.006,1.015
					c0.444,0.444,0.852,0.87,1.233,1.278c0.544,0.571,1.024,1.097,1.423,1.532c0.1,0.109,0.199,0.217,0.281,0.308
					c0.181,0.199,0.335,0.372,0.462,0.508c0.118,0.136,0.208,0.245,0.272,0.317c0.036,0.045,0.063,0.072,0.091,0.091
					c-0.009-0.045-0.027-0.118-0.054-0.208c-0.009-0.018-0.018-0.027-0.018-0.045c-0.245-0.725-0.879-2.674-1.749-5.32
					c-0.1-0.29-0.19-0.589-0.29-0.888c-0.172-0.526-0.353-1.06-0.535-1.622c-0.091-0.281-0.19-0.562-0.29-0.843
					c-0.48-1.432-0.997-2.973-1.541-4.568c-1.079-3.181-2.239-6.571-3.363-9.725v-0.009c-0.707-1.994-1.749-4.305-2.701-6.372
					c-0.517-1.142-1.015-2.212-1.405-3.109c0-0.009-0.009-0.009-0.009-0.009c-0.145-0.363-0.29-0.689-0.408-0.988
					c-0.109-0.281-0.118-0.453-0.036-0.526c0.082-0.091,0.281-0.063,0.553,0.054c0.906,0.372,2.692,1.695,4.532,3.109
					c0.009,0,0.018,0,0.018,0.009c0.335,0.245,0.662,0.499,0.988,0.761c0.172,0.127,0.344,0.263,0.517,0.39
					c0.77,0.589,1.568,1.224,2.356,1.867c2.973,2.384,5.828,4.849,6.571,5.483c0.009,0.018,0.018,0.018,0.018,0.018
					c0.054,0.054,0.091,0.082,0.118,0.109c-0.344-0.417-3.163-3.897-4.505-8.837c-2.42-9.009-3.789-22.55-4.858-29.302
					c-0.399-2.393-0.888-4.305-0.544-4.55h0.009c0.236-0.145,1.405,0.544,1.921,1.341c0.816,1.242,2.121,2.456,2.792,3.562
					c3.399,5.357,5.502,9,6.789,11.447c1.523,2.9,1.894,4.115,1.894,4.477l0.073-0.789l0.453-47.438l6.616-43.904
					C92.045,335.03,211.593,466.514,211.593,466.514z"/>
				<g>
					<path style="fill:#0A8936;" d="M209.432,463.65"/>
					<path style="fill:#0A8936;" d="M100.822,252.931"/>
					<path style="fill:#0A8936;" d="M159.546,343.3c0,0-2.179,11.422-10.417,19.224"/>
					<path style="fill:#0A8936;" d="M153.208,324.78c0,0-4.453,14.175-11.177,20.795"/>
					<path style="fill:#0A8936;" d="M141.472,307.247c0,0-2.241,14.343-6.969,18.877"/>
					<path style="fill:#0A8936;" d="M129.661,283.543c0,0-1.078,10.781-4.392,16.052"/>
					<path style="fill:#0A8936;" d="M99.395,252.966c0,0,3.867,10.667,13.28,17.244"/>
					<path style="fill:#0A8936;" d="M96.91,273.558c0,0,7.206,9.98,21.568,17.007"/>
					<path style="fill:#0A8936;" d="M108.498,303.863c0,0,14.158,11.067,17.461,9.349"/>
					<path style="fill:#0A8936;" d="M108.289,320.418c0,0,20.443,13.32,25.316,13.509"/>
					<path style="fill:#0A8936;" d="M109.091,333.846c0,0,27.899,17.926,31.231,16.822"/>
					<path style="fill:#0A8936;" d="M114.587,353.956c0,0,30.428,21.478,35.162,19.791"/>
					<path style="opacity:0.6;fill:#0A8936;" d="M107.752,217.503c0.34,0.757,1.114,5.949,1.223,9.562
						c1.019,33.75,25.785,108.307,52.659,162.422c18.989,38.237,43.084,66.188,49.872,74.91c0.148,0.19,0.289,0.371,0.423,0.542
						c1.161,1.483-2.079,1.877-2.079,1.877s-29.107-31.426-52.091-77.709c-27.458-55.292-52.279-129.546-52.188-161.82
						C105.581,223.263,107.498,216.939,107.752,217.503z"/>
				</g>
			</g>
			<g>
				<path style="opacity:0.6;fill:#1A9748;stroke:#265418;stroke-width:0.5;stroke-miterlimit:10;" d="M527.645,412.843
					L494.5,439.276l-37.754,30.108l-15.748-5.149l1.605-8.756l12.461-36.588l15.463-45.401c0,0,2.888-9.738,1.718-18.012
					c-0.788-5.575,8.045,11.656,8.045,11.656s0.957-6.918,1.498-14.953c0.211-3.129,0.359-6.427,0.362-9.552
					c0.001-0.548,0.086-2.705,0.289-2.783c0.337-0.129,0.932,0.528,1.652,1.625c1.048,1.597,2.36,4.126,3.529,6.519
					c1.606,3.289,2.94,6.32,2.94,6.32s-0.271-7.82-0.813-16.54c-0.359-5.776-0.837-11.946-1.433-16.502
					c-0.106-0.813-0.422-3.191-0.343-3.368c0.236-0.532,1.17,0.528,2.388,2.322c3.085,4.544,7.993,13.796,7.993,13.796
					s-0.281-5.786-0.118-12.924c0.096-4.229,0.348-8.933,0.906-13.188c0.201-1.533,0.888-4.852,1.013-4.915
					c0.509-0.254,1.489,1.313,2.569,3.512c2.156,4.391,4.71,11.305,4.71,11.305s2.077-5.798,3.978-12.897
					c1.29-4.814,2.499-10.226,2.925-14.833c0.211-2.28,0.23-4.363-0.027-6.079c-0.395-2.629,0.892,0.34,2.323,4.101
					c1.524,4.004,3.212,8.905,3.212,8.905s2.156-10.114,4.158-20.041c0.695-3.445,1.371-6.868,1.932-9.838
					c0.699-3.699,1.218-6.696,1.373-8.158c0.377-3.565,1.46,0.193,2.469,4.962c1.053,4.978,2.024,11.058,2.024,11.058l4.004-28.308
					l8.692-61.45l4.141-35.444c0,0,1.818-13.238,1.823-10.559c0.003,1.846,1.222,12.477,1.222,12.477l7.74,44.18l1.475,47.34
					l0.088,0.913c0,0-0.782-2.697,7.628-15.954c0.693-1.093,1.449-2.258,2.273-3.499c0.531-0.8,1.449-1.474,1.66-1.335
					c0.37,0.244-0.272,2.188-0.654,4.573c-1.083,6.761-2.498,20.309-4.934,29.301c-1.428,5.273-4.571,8.891-4.571,8.891
					s4.941-4.344,9.08-7.521c3.351-2.572,7.32-5.677,6.569-3.79c-0.949,2.385-3.284,6.944-4.533,10.481
					c-1.788,5.061-3.696,10.691-5.186,15.143c-1.578,4.717-2.687,8.113-2.687,8.113s2.527-2.859,5.313-5.596
					c2.338-2.297,6.186-5.988,7.379-6.581c0.293-0.146-0.175,4.278-0.432,5.494c-0.401,1.898-1.163,4.177-2.135,6.623
					c-1.838,4.628-4.422,9.852-6.72,14.216c-2.845,5.404-5.249,9.489-5.249,9.489s3.127-3.019,6.275-5.765
					c3.148-2.746,6.717-7.409,6.8-6.319c0.141,1.849-0.67,6.462-1.458,9.23c-1.913,6.718-6.057,15.464-9.978,22.957
					c-4.612,8.815-8.916,15.895-8.916,15.895s12.019-16.428,17.727-21.786c1.204-1.131,3.563-2.759,4.034-2.646
					c0.47,0.113-0.947,1.968-1.555,3.841c-11.646,35.896-30.335,44.791-30.335,44.791s10.578-2.745,14.456-2.582
					c0.646,0.027,1.941-0.098,2.135,0.117c0.194,0.215-0.712,0.771-1.13,1.226c-17.873,19.468-23.876,20.813-23.876,20.813
					s7.216-1.943,12.745-2.959c4.22-0.776,7.458-1.012,5.756,0.568c-0.205,0.19-3.063,2.282-4.732,3.589
					C543.452,399.638,527.645,412.843,527.645,412.843"/>
				<path style="opacity:0.6;fill:#167D2E;stroke:#265418;stroke-width:0.5;stroke-miterlimit:10;" d="M568.306,280.425
					c-1.467,4.467-2.544,7.732-2.66,8.097c0.297-0.332,2.669-3.014,5.282-5.567c2.359-2.301,6.2-6.01,7.385-6.579
					c0.289-0.154-0.171,4.266-0.433,5.48c-0.398,1.91-1.165,4.185-2.119,6.629c-1.856,4.631-4.441,9.837-6.726,14.206
					c-2.843,5.409-5.258,9.486-5.258,9.486s3.125-3.007,6.275-5.764c3.152-2.732,6.724-7.401,6.803-6.321
					c0.154,1.857-0.668,6.464-1.462,9.247c-1.909,6.71-6.049,15.456-9.983,22.942c-4.166,7.964-8.086,14.539-8.781,15.719
					c1.342-1.824,12.239-16.583,17.599-21.601c1.207-1.128,3.578-2.773,4.046-2.641c0.466,0.107-0.949,1.963-1.552,3.842
					c-11.178,34.44-28.845,44.033-30.244,44.75c1.038-0.252,10.668-2.697,14.35-2.545c0.659,0.012,1.937-0.111,2.137,0.123
					c0.197,0.209-0.712,0.752-1.122,1.221c-16.096,17.511-22.55,20.358-23.676,20.745c1.186-0.291,7.548-1.992,12.545-2.903
					c4.227-0.761,7.467-0.997,5.748,0.585c-0.211,0.172-3.07,2.269-4.738,3.593c-8.256,6.461-24.083,19.671-24.083,19.671
					l-33.145,26.437l-37.748,30.118l-8.751-2.876c0,0,119.554-131.484,103.759-314.437l6.611,43.907l0.45,47.435l0.08,0.827
					c-0.053-0.551,1.099-4.026,8.677-15.962c0.678-1.102,1.975-2.315,2.791-3.557c0.529-0.81,1.713-1.506,1.93-1.349
					c0.352,0.244-0.14,2.164-0.542,4.555c-1.07,6.755-2.432,20.293-4.852,29.303c-1.346,4.936-4.165,8.419-4.504,8.832
					c0.56-0.484,5.174-4.495,9.06-7.474c3.344-2.573,7.327-5.689,6.574-3.795c-0.958,2.394-3.273,6.942-4.526,10.478
					C571.706,270.334,569.8,275.981,568.306,280.425z"/>
				<g>
					<path style="fill:#0A8936;" d="M450.155,463.65"/>
					<path style="fill:#0A8936;" d="M558.765,252.931"/>
					<path style="fill:#0A8936;" d="M500.041,343.3c0,0,2.179,11.422,10.417,19.224"/>
					<path style="fill:#0A8936;" d="M506.379,324.78c0,0,4.453,14.175,11.177,20.795"/>
					<path style="fill:#0A8936;" d="M518.115,307.247c0,0,2.241,14.343,6.969,18.877"/>
					<path style="fill:#0A8936;" d="M529.926,283.543c0,0,1.078,10.781,4.392,16.052"/>
					<path style="fill:#0A8936;" d="M560.192,252.966c0,0-3.867,10.667-13.28,17.244"/>
					<path style="fill:#0A8936;" d="M562.677,273.558c0,0-7.206,9.98-21.568,17.007"/>
					<path style="fill:#0A8936;" d="M551.089,303.863c0,0-14.158,11.067-17.461,9.349"/>
					<path style="fill:#0A8936;" d="M551.298,320.418c0,0-20.443,13.32-25.316,13.509"/>
					<path style="fill:#0A8936;" d="M550.496,333.846c0,0-27.899,17.926-31.231,16.822"/>
					<path style="fill:#0A8936;" d="M545,353.956c0,0-30.428,21.478-35.162,19.791"/>
					<path style="fill:#0A8936;" d="M551.835,217.503c-0.34,0.757-1.114,5.949-1.223,9.562
						c-1.019,33.75-25.785,108.307-52.659,162.422c-18.989,38.237-43.084,66.188-49.872,74.91c-0.148,0.19-0.289,0.371-0.423,0.542
						c-1.161,1.483,2.079,1.877,2.079,1.877s29.107-31.426,52.091-77.709c27.458-55.292,52.279-129.546,52.188-161.82
						C554.005,223.263,552.089,216.939,551.835,217.503z"/>
				</g>
			</g>
			<path style="fill:#2F71A9;" d="M-176.886,575.673"/>
			<g>
				<g>
					<path style="fill:#169B7B;" d="M334.099,165.03c19.783,0.075,37.591,6.17,53.147,18.281
						c18.754,14.6,30.254,33.829,35.022,57.103c2.251,10.985,2.471,22.037,0.98,33.116c-1.189,8.841-2.23,17.726-3.971,26.465
						c-2.782,13.961-7.683,27.222-14.29,39.873c-5.925,11.345-13.272,21.585-22.586,30.36
						c-10.545,9.935-22.676,17.045-37.078,19.656c-14.686,2.663-28.63,0.227-41.806-6.758
						c-10.274-5.447-18.827-12.936-26.258-21.814c-8.02-9.581-14.25-20.233-19.171-31.674c-7.609-17.691-11.573-36.24-13.311-55.373
						c-0.858-9.446-1.287-18.829,0.032-28.243c1.913-13.663,6.426-26.404,13.76-38.09c10.243-16.321,24.098-28.521,41.875-36.125
						C311.184,167.213,322.425,165.022,334.099,165.03z"/>
					<path style="fill:#169B7B;" d="M192.344,504.843c-15.483-7.048-20.65-8.139-36.77-8.094
						c0.456-27.988,9.549-52.777,27.42-74.218c23.093-27.706,54.572-39.849,79.441-41.55c1.152,13.011,9.734,20.52,20.058,26.575
						c9.563,5.608,20.066,8.716,30.942,10.412c20.618,3.216,40.944,2.089,60.685-5.128c9.432-3.449,18.097-8.221,24.78-15.992
						c3.915-4.552,6.324-9.751,6.612-15.805c57.005,3.537,107.56,55.231,106.738,115.235c-6.322,0.68-12.702,0.829-18.819,2.176
						c-6.05,1.332-11.834,3.873-17.773,5.896c-0.132-2.313-0.153-5.149-0.48-7.949c-1.529-13.097-13.66-23.625-27.189-21.473
						c-8.303,1.321-16.775,1.565-25.162,2.383c-18.21,1.776-36.414,3.627-54.623,5.411c-7.101,0.696-14.213,1.274-21.317,1.945
						c-4.813,0.455-8.976,2.474-12.859,5.643c-3.528-2.956-7.552-5.04-12.146-5.57c-6.298-0.726-12.631-1.151-18.943-1.766
						c-8.388-0.817-16.768-1.727-25.158-2.533c-11.184-1.074-22.375-2.073-33.561-3.131c-8.1-0.765-16.235-1.288-24.284-2.424
						c-13.983-1.974-25.2,8.53-26.992,20.995C192.527,498.794,192.539,501.766,192.344,504.843z"/>
					<path style="fill:#169B7B;" d="M509.651,514.455c26.871,0.062,48.539,21.867,48.49,48.799
						c-0.048,26.718-22.133,48.65-48.859,48.521c-26.976-0.13-48.713-22.109-48.466-49.336
						C461.06,535.729,483.119,514.166,509.651,514.455z"/>
				</g>
				<path style="fill:#51B9A1;" d="M162.204,514.464c27.427,0.26,48.713,22.072,48.481,49.68
					c-0.219,26.014-22.588,47.812-48.893,47.646c-26.98-0.17-48.72-22.311-48.466-49.361
					C113.575,535.855,135.629,514.213,162.204,514.464z"/>
				<path style="fill:#51B9A1;" d="M371.869,378.777c-7.929,5.446-16.707,9.325-26.545,11.106
					c-14.686,2.663-28.626,0.231-41.805-6.756c-10.276-5.446-18.83-12.939-26.263-21.819c-8.015-9.573-14.249-20.226-19.164-31.666
					c-7.613-17.691-11.577-36.247-13.316-55.377c-0.856-9.445-1.284-18.83,0.034-28.241c1.91-13.667,6.422-26.408,13.761-38.088
					c10.241-16.321,24.096-28.524,41.873-36.128c10.738-4.598,21.981-6.782,33.653-6.782c13.564,0.051,26.203,2.937,37.823,8.649
					c-15.824,7.673-28.335,19.215-37.78,34.261c-7.33,11.68-11.843,24.422-13.761,38.088c-1.319,9.411-0.891,18.796-0.026,28.241
					c1.738,19.13,5.694,37.686,13.307,55.377c4.924,11.44,11.149,22.093,19.173,31.666
					C358.451,368.022,364.71,373.939,371.869,378.777z"/>
			</g>
		</g>
		<path style="fill:#51B9A1;" d="M268.11,395.723c-11.389,6.499-22.41,15.319-31.983,26.811
			c-13.179,15.807-21.587,33.447-25.27,52.834c-9.539,2.449-16.535,10.892-17.914,20.517c-0.42,2.911-0.402,5.883-0.599,8.957
			c-15.482-7.047-20.654-8.135-36.77-8.092c0.454-27.984,9.548-52.774,27.419-74.216c23.095-27.71,54.572-39.852,79.439-41.557
			C262.964,386.912,265.028,391.69,268.11,395.723z"/>
	</g>
	<path style="fill:#F8F61E;" d="M345.769,79.198c-3.776,1.25-7.827,1.927-12.022,1.927c-21.082,0-38.174-17.083-38.174-38.166
		c0-21.091,17.092-38.174,38.174-38.174c4.196,0,8.246,0.676,12.022,1.935c-15.191,5.027-26.152,19.353-26.152,36.239
		C319.617,59.846,330.578,74.163,345.769,79.198z"/>
	<path style="fill:#EEE51A;" d="M345.769,79.198c-3.776,1.25-7.827,1.927-12.022,1.927c-21.082,0-38.174-17.083-38.174-38.166
		c0-21.091,17.092-38.174,38.174-38.174c4.196,0,8.246,0.676,12.022,1.935c-15.191,5.027-26.152,19.353-26.152,36.239
		C319.617,59.846,330.578,74.163,345.769,79.198z"/>
	<path style="fill:#F8F61E;" d="M339.852,80.637c-1.987,0.325-4.025,0.488-6.105,0.488c-21.082,0-38.174-17.083-38.174-38.166
		c0-21.091,17.092-38.174,38.174-38.174c2.081,0,4.119,0.163,6.105,0.488c-18.179,2.92-32.06,18.676-32.06,37.686
		C307.791,61.961,321.672,77.717,339.852,80.637z"/>
</g>
<g id="Layer_1">
</g>
</svg>
